<svg xmlns="http://www.w3.org/2000/svg" xmlns:xlink="http://www.w3.org/1999/xlink" width="300" zoomAndPan="magnify" viewBox="0 0 224.87999 74.999997" height="100" preserveAspectRatio="xMidYMid meet" version="1.0"><defs><g/><clipPath id="9d62c40420"><path d="M 0 0.0195312 L 224.761719 0.0195312 L 224.761719 74.980469 L 0 74.980469 Z M 0 0.0195312 " clip-rule="nonzero"/></clipPath><clipPath id="f69d20b301"><path d="M 5.765625 9.484375 L 67.984375 9.484375 L 67.984375 65.703125 L 5.765625 65.703125 Z M 5.765625 9.484375 " clip-rule="nonzero"/></clipPath></defs><g clip-path="url(#9d62c40420)"><path fill="#ffffff" d="M 0 0.0195312 L 224.878906 0.0195312 L 224.878906 74.980469 L 0 74.980469 Z M 0 0.0195312 " fill-opacity="1" fill-rule="nonzero"/><path fill="#152239" d="M 0 0.0195312 L 224.878906 0.0195312 L 224.878906 74.980469 L 0 74.980469 Z M 0 0.0195312 " fill-opacity="1" fill-rule="nonzero"/></g><g clip-path="url(#f69d20b301)"><path fill="#ffffff" d="M 8.425781 35.332031 C 9.894531 35.332031 11.085938 36.519531 11.085938 37.988281 C 11.085938 39.457031 9.894531 40.652344 8.425781 40.652344 C 6.957031 40.652344 5.765625 39.457031 5.765625 37.988281 C 5.765625 36.523438 6.957031 35.332031 8.425781 35.332031 M 10.117188 20.375 C 11.375 20.375 12.390625 21.390625 12.390625 22.648438 C 12.390625 23.902344 11.375 24.921875 10.117188 24.921875 C 8.863281 24.921875 7.84375 23.902344 7.84375 22.648438 C 7.84375 21.390625 8.863281 20.375 10.117188 20.375 Z M 19.875 27.265625 C 21.851562 27.265625 23.457031 28.871094 23.457031 30.847656 C 23.457031 32.824219 21.851562 34.425781 19.875 34.425781 C 17.898438 34.425781 16.296875 32.824219 16.296875 30.847656 C 16.296875 28.867188 17.898438 27.265625 19.875 27.265625 Z M 24.011719 13.488281 C 25.84375 13.488281 27.328125 14.96875 27.328125 16.800781 C 27.328125 18.628906 25.84375 20.113281 24.011719 20.113281 C 22.183594 20.113281 20.699219 18.628906 20.699219 16.800781 C 20.699219 14.96875 22.183594 13.488281 24.011719 13.488281 Z M 43.621094 15.820312 L 50.15625 25.40625 L 50.417969 25.402344 C 53.707031 25.402344 56.375 28.070312 56.375 31.355469 C 56.375 34.644531 53.707031 37.316406 50.417969 37.316406 C 48.871094 37.316406 47.410156 36.714844 46.316406 35.675781 L 42.742188 36.972656 C 42.367188 38.242188 41.496094 39.292969 40.355469 39.910156 C 41.296875 40.222656 42.117188 40.820312 42.703125 41.621094 L 47.179688 41.601562 C 48.042969 40.480469 49.394531 39.789062 50.859375 39.789062 C 53.410156 39.789062 55.484375 41.859375 55.484375 44.417969 C 55.484375 46.972656 53.414062 49.042969 50.859375 49.042969 C 49.402344 49.042969 48.058594 48.359375 47.195312 47.246094 L 42.660156 47.265625 C 41.945312 48.21875 40.886719 48.875 39.703125 49.089844 L 38.007812 52.71875 C 38.199219 53.214844 38.296875 53.746094 38.296875 54.289062 C 38.296875 55.683594 37.644531 56.929688 36.628906 57.734375 C 39.5625 58.566406 42.191406 60.28125 44.144531 62.683594 L 53.800781 62.683594 L 57.296875 55.78125 C 62.117188 54.570312 65.515625 54.746094 63.765625 48.886719 C 65.320312 47.402344 66.28125 46.859375 64.53125 45.5625 C 65.257812 45.183594 65.488281 44.820312 65.59375 44.320312 L 64.328125 41.925781 C 66.859375 40.472656 68.019531 39.023438 67.125 37.992188 L 61.351562 31.363281 C 60.371094 19.28125 52.460938 13.804688 43.976562 13.339844 C 43.988281 13.476562 43.992188 13.609375 43.992188 13.746094 C 43.992188 14.457031 43.867188 15.160156 43.621094 15.820312 Z M 42.269531 13.316406 C 42.054688 11.167969 40.238281 9.492188 38.035156 9.492188 C 35.683594 9.492188 33.777344 11.398438 33.777344 13.746094 C 33.777344 14.207031 33.851562 14.652344 33.988281 15.066406 C 34.542969 16.769531 36.144531 18.003906 38.035156 18.003906 C 38.75 18.003906 39.417969 17.828125 40.007812 17.519531 L 47.398438 28.359375 C 46.636719 29.128906 46.164062 30.1875 46.164062 31.355469 L 46.167969 31.535156 L 40.550781 33.574219 C 39.960938 32.828125 39.046875 32.347656 38.019531 32.347656 C 36.242188 32.347656 34.796875 33.792969 34.796875 35.574219 C 34.796875 37.355469 36.242188 38.796875 38.019531 38.796875 C 39.757812 38.796875 41.171875 37.425781 41.242188 35.707031 L 46.851562 33.675781 C 47.609375 34.839844 48.925781 35.613281 50.417969 35.613281 C 52.769531 35.613281 54.675781 33.707031 54.675781 31.355469 C 54.675781 29.003906 52.769531 27.097656 50.417969 27.097656 C 50.050781 27.097656 49.691406 27.148438 49.347656 27.234375 L 41.667969 15.96875 C 42.0625 15.324219 42.292969 14.5625 42.292969 13.746094 C 42.292969 13.601562 42.285156 13.457031 42.269531 13.316406 Z M 32.390625 52.058594 C 31.679688 52.546875 31.210938 53.363281 31.210938 54.285156 C 31.210938 55.683594 32.273438 56.832031 33.632812 56.96875 C 33.722656 56.976562 33.8125 56.980469 33.90625 56.980469 C 35.394531 56.980469 36.597656 55.773438 36.597656 54.285156 C 36.597656 53.714844 36.421875 53.1875 36.117188 52.75 L 38.589844 47.453125 L 38.863281 47.464844 C 40.136719 47.464844 41.230469 46.679688 41.683594 45.566406 L 48.15625 45.539062 C 48.597656 46.597656 49.640625 47.34375 50.859375 47.34375 C 52.476562 47.34375 53.785156 46.03125 53.785156 44.414062 C 53.785156 42.800781 52.476562 41.488281 50.859375 41.488281 C 49.636719 41.488281 48.589844 42.234375 48.152344 43.300781 L 41.710938 43.328125 C 41.273438 42.179688 40.160156 41.367188 38.863281 41.367188 C 37.855469 41.367188 36.964844 41.855469 36.410156 42.605469 L 31.074219 39.6875 C 31.128906 39.433594 31.160156 39.171875 31.160156 38.902344 C 31.160156 37.757812 30.640625 36.730469 29.828125 36.050781 L 32.058594 30.535156 C 32.289062 30.566406 32.527344 30.582031 32.765625 30.582031 C 35.808594 30.582031 38.277344 28.113281 38.277344 25.066406 C 38.277344 22.023438 35.808594 19.554688 32.765625 19.554688 C 29.71875 19.554688 27.25 22.023438 27.25 25.066406 C 27.25 27.078125 28.328125 28.835938 29.933594 29.800781 L 27.75 35.199219 L 27.445312 35.1875 C 25.390625 35.1875 23.726562 36.847656 23.726562 38.902344 C 23.726562 40.953125 25.390625 42.617188 27.445312 42.617188 C 28.417969 42.617188 29.300781 42.242188 29.964844 41.632812 L 35.84375 44.855469 C 35.933594 45.460938 36.199219 46.011719 36.589844 46.445312 L 34.179688 51.609375 L 33.90625 51.59375 C 33.34375 51.59375 32.820312 51.765625 32.390625 52.058594 Z M 38.019531 30.648438 C 39.089844 30.648438 40.113281 30.996094 40.953125 31.617188 L 44.554688 30.3125 C 44.679688 29.601562 44.933594 28.921875 45.300781 28.304688 L 39.339844 19.5625 C 38.914062 19.65625 38.476562 19.707031 38.035156 19.707031 L 37.570312 19.6875 C 39.046875 21.007812 39.976562 22.929688 39.976562 25.066406 C 39.976562 27.351562 38.917969 29.386719 37.261719 30.707031 C 37.507812 30.667969 37.761719 30.648438 38.019531 30.648438 Z M 32.335938 59.320312 C 34.042969 59.320312 35.429688 60.707031 35.429688 62.414062 C 35.429688 64.125 34.042969 65.511719 32.335938 65.511719 C 30.625 65.511719 29.238281 64.125 29.238281 62.414062 C 29.238281 60.707031 30.625 59.320312 32.335938 59.320312 Z M 22.707031 54.628906 C 24.414062 54.628906 25.800781 56.015625 25.800781 57.726562 C 25.800781 59.433594 24.414062 60.820312 22.707031 60.820312 C 20.996094 60.820312 19.609375 59.433594 19.609375 57.726562 C 19.609375 56.015625 20.996094 54.628906 22.707031 54.628906 Z M 17.921875 43.890625 C 19.367188 43.890625 20.535156 45.058594 20.535156 46.503906 C 20.535156 47.945312 19.367188 49.113281 17.921875 49.113281 C 16.480469 49.113281 15.3125 47.941406 15.3125 46.503906 C 15.3125 45.058594 16.480469 43.890625 17.921875 43.890625 Z M 17.921875 43.890625 " fill-opacity="1" fill-rule="evenodd"/></g><g fill="#97e4ff" fill-opacity="1"><g transform="translate(69.129869, 39.046842)"><g><path d="M 6.5625 0 L 3.8125 0 L 3.8125 -11.015625 L 0.390625 -11.015625 L 0.390625 -13.75 L 9.984375 -13.75 L 9.984375 -11.015625 L 6.5625 -11.015625 Z M 6.5625 0 "/></g></g></g><g fill="#97e4ff" fill-opacity="1"><g transform="translate(78.598195, 39.046842)"><g><path d="M 8.65625 0 L 1.546875 0 L 1.546875 -13.765625 L 8.4375 -13.765625 L 8.4375 -11.015625 L 4.296875 -11.015625 L 4.296875 -8.265625 L 7.90625 -8.265625 L 7.90625 -5.5 L 4.296875 -5.5 L 4.296875 -2.75 L 8.65625 -2.75 Z M 8.65625 0 "/></g></g></g><g fill="#97e4ff" fill-opacity="1"><g transform="translate(87.238981, 39.046842)"><g><path d="M 10.296875 -10.5625 C 10.035156 -10.707031 9.722656 -10.84375 9.359375 -10.96875 C 8.992188 -11.101562 8.507812 -11.171875 7.90625 -11.171875 C 7.125 -11.171875 6.457031 -11.019531 5.90625 -10.71875 C 5.351562 -10.414062 4.910156 -10.015625 4.578125 -9.515625 C 4.242188 -9.015625 4.019531 -8.460938 3.90625 -7.859375 C 3.789062 -7.265625 3.789062 -6.664062 3.90625 -6.0625 C 4.019531 -5.46875 4.242188 -4.921875 4.578125 -4.421875 C 4.910156 -3.921875 5.351562 -3.519531 5.90625 -3.21875 C 6.457031 -2.914062 7.125 -2.765625 7.90625 -2.765625 C 8.507812 -2.765625 9.039062 -2.835938 9.5 -2.984375 C 9.957031 -3.128906 10.3125 -3.265625 10.5625 -3.390625 L 10.9375 -0.53125 C 10.507812 -0.363281 10.019531 -0.226562 9.46875 -0.125 C 8.914062 -0.0195312 8.394531 0.03125 7.90625 0.03125 C 6.738281 0.03125 5.71875 -0.160156 4.84375 -0.546875 C 3.976562 -0.941406 3.253906 -1.472656 2.671875 -2.140625 C 2.085938 -2.804688 1.648438 -3.550781 1.359375 -4.375 C 1.066406 -5.207031 0.921875 -6.066406 0.921875 -6.953125 C 0.921875 -7.835938 1.066406 -8.691406 1.359375 -9.515625 C 1.648438 -10.347656 2.085938 -11.097656 2.671875 -11.765625 C 3.253906 -12.429688 3.976562 -12.957031 4.84375 -13.34375 C 5.71875 -13.738281 6.738281 -13.9375 7.90625 -13.9375 C 8.90625 -13.9375 9.8125 -13.753906 10.625 -13.390625 Z M 10.296875 -10.5625 "/></g></g></g><g fill="#97e4ff" fill-opacity="1"><g transform="translate(97.765793, 39.046842)"><g><path d="M 11.171875 0 L 8.40625 0 L 8.40625 -5.5 L 4.296875 -5.5 L 4.296875 0 L 1.546875 0 L 1.546875 -13.765625 L 4.296875 -13.765625 L 4.296875 -8.265625 L 8.40625 -8.265625 L 8.40625 -13.765625 L 11.171875 -13.765625 Z M 11.171875 0 "/></g></g></g><g fill="#97e4ff" fill-opacity="1"><g transform="translate(109.428077, 39.046842)"><g><path d="M 4.296875 -7.484375 L 4.296875 0 L 1.546875 0 L 1.546875 -14.046875 L 2.265625 -14.046875 L 9.21875 -5.96875 L 9.21875 -13.75 L 12 -13.75 L 12 0.28125 L 11.265625 0.28125 Z M 4.296875 -7.484375 "/></g></g></g><g fill="#97e4ff" fill-opacity="1"><g transform="translate(121.917902, 39.046842)"><g><path d="M 8.15625 0.1875 C 6.976562 0.1875 5.941406 -0.0078125 5.046875 -0.40625 C 4.160156 -0.800781 3.421875 -1.332031 2.828125 -2 C 2.234375 -2.675781 1.789062 -3.4375 1.5 -4.28125 C 1.207031 -5.132812 1.0625 -6.003906 1.0625 -6.890625 C 1.0625 -7.785156 1.207031 -8.65625 1.5 -9.5 C 1.789062 -10.351562 2.234375 -11.113281 2.828125 -11.78125 C 3.421875 -12.457031 4.160156 -12.992188 5.046875 -13.390625 C 5.941406 -13.796875 6.976562 -14 8.15625 -14 C 9.34375 -14 10.378906 -13.796875 11.265625 -13.390625 C 12.160156 -12.992188 12.898438 -12.457031 13.484375 -11.78125 C 14.078125 -11.113281 14.519531 -10.351562 14.8125 -9.5 C 15.113281 -8.65625 15.265625 -7.785156 15.265625 -6.890625 C 15.265625 -6.003906 15.113281 -5.132812 14.8125 -4.28125 C 14.519531 -3.4375 14.078125 -2.675781 13.484375 -2 C 12.898438 -1.332031 12.160156 -0.800781 11.265625 -0.40625 C 10.378906 -0.0078125 9.34375 0.1875 8.15625 0.1875 Z M 8.15625 -2.65625 C 8.945312 -2.65625 9.625 -2.804688 10.1875 -3.109375 C 10.75 -3.421875 11.195312 -3.828125 11.53125 -4.328125 C 11.863281 -4.835938 12.085938 -5.394531 12.203125 -6 C 12.316406 -6.601562 12.316406 -7.207031 12.203125 -7.8125 C 12.085938 -8.414062 11.863281 -8.96875 11.53125 -9.46875 C 11.195312 -9.976562 10.75 -10.390625 10.1875 -10.703125 C 9.625 -11.015625 8.945312 -11.171875 8.15625 -11.171875 C 7.375 -11.171875 6.703125 -11.015625 6.140625 -10.703125 C 5.578125 -10.390625 5.128906 -9.976562 4.796875 -9.46875 C 4.460938 -8.96875 4.238281 -8.414062 4.125 -7.8125 C 4.007812 -7.207031 4.007812 -6.601562 4.125 -6 C 4.238281 -5.394531 4.460938 -4.835938 4.796875 -4.328125 C 5.128906 -3.828125 5.578125 -3.421875 6.140625 -3.109375 C 6.703125 -2.804688 7.375 -2.65625 8.15625 -2.65625 Z M 8.15625 -2.65625 "/></g></g></g><g fill="#97e4ff" fill-opacity="1"><g transform="translate(137.15979, 39.046842)"><g><path d="M 11.171875 0 L 8.40625 0 L 8.40625 -5.5 L 4.296875 -5.5 L 4.296875 0 L 1.546875 0 L 1.546875 -13.765625 L 4.296875 -13.765625 L 4.296875 -8.265625 L 8.40625 -8.265625 L 8.40625 -13.765625 L 11.171875 -13.765625 Z M 11.171875 0 "/></g></g></g><g fill="#97e4ff" fill-opacity="1"><g transform="translate(148.822074, 39.046842)"><g><path d="M 8.65625 0 L 1.546875 0 L 1.546875 -13.765625 L 8.4375 -13.765625 L 8.4375 -11.015625 L 4.296875 -11.015625 L 4.296875 -8.265625 L 7.90625 -8.265625 L 7.90625 -5.5 L 4.296875 -5.5 L 4.296875 -2.75 L 8.65625 -2.75 Z M 8.65625 0 "/></g></g></g><g fill="#97e4ff" fill-opacity="1"><g transform="translate(157.46286, 39.046842)"><g><path d="M 0.3125 0 L 6.109375 -14.265625 L 6.390625 -14.265625 L 12.1875 0 L 9.09375 0 L 8.53125 -1.484375 L 3.96875 -1.484375 L 3.421875 0 Z M 4.96875 -4.0625 L 7.5 -4.0625 L 6.25 -7.640625 Z M 4.96875 -4.0625 "/></g></g></g><g fill="#97e4ff" fill-opacity="1"><g transform="translate(168.971182, 39.046842)"><g><path d="M 5.8125 0.28125 L 0.109375 -13.765625 L 3.296875 -13.765625 L 5.125 -9.1875 L 6.125 -6.328125 L 7.109375 -9.09375 L 8.953125 -13.765625 L 12.125 -13.765625 L 6.421875 0.28125 Z M 5.8125 0.28125 "/></g></g></g><g fill="#97e4ff" fill-opacity="1"><g transform="translate(180.171581, 39.046842)"><g><path d="M 8.65625 0 L 1.546875 0 L 1.546875 -13.765625 L 8.4375 -13.765625 L 8.4375 -11.015625 L 4.296875 -11.015625 L 4.296875 -8.265625 L 7.90625 -8.265625 L 7.90625 -5.5 L 4.296875 -5.5 L 4.296875 -2.75 L 8.65625 -2.75 Z M 8.65625 0 "/></g></g></g><g fill="#97e4ff" fill-opacity="1"><g transform="translate(188.812367, 39.046842)"><g><path d="M 4.296875 -7.484375 L 4.296875 0 L 1.546875 0 L 1.546875 -14.046875 L 2.265625 -14.046875 L 9.21875 -5.96875 L 9.21875 -13.75 L 12 -13.75 L 12 0.28125 L 11.265625 0.28125 Z M 4.296875 -7.484375 "/></g></g></g><g fill="#ffffff" fill-opacity="1"><g transform="translate(69.129869, 50.541611)"><g/></g></g><g fill="#ffffff" fill-opacity="1"><g transform="translate(70.593379, 50.541611)"><g><path d="M 1.671875 -3.84375 L 1.671875 -2.1875 C 1.710938 -2.175781 1.75 -2.171875 1.78125 -2.171875 C 1.820312 -2.171875 1.863281 -2.171875 1.90625 -2.171875 C 2.082031 -2.171875 2.238281 -2.203125 2.375 -2.265625 C 2.519531 -2.328125 2.640625 -2.421875 2.734375 -2.546875 C 2.828125 -2.679688 2.875 -2.847656 2.875 -3.046875 C 2.875 -3.304688 2.804688 -3.515625 2.671875 -3.671875 C 2.535156 -3.828125 2.320312 -3.90625 2.03125 -3.90625 C 1.957031 -3.90625 1.890625 -3.898438 1.828125 -3.890625 C 1.785156 -3.878906 1.734375 -3.863281 1.671875 -3.84375 Z M 2.875 -1.921875 C 2.96875 -1.859375 3.046875 -1.796875 3.109375 -1.734375 C 3.191406 -1.648438 3.269531 -1.546875 3.34375 -1.421875 C 3.425781 -1.296875 3.523438 -1.117188 3.640625 -0.890625 C 3.710938 -0.765625 3.773438 -0.664062 3.828125 -0.59375 C 3.890625 -0.519531 3.957031 -0.46875 4.03125 -0.4375 C 4.101562 -0.40625 4.195312 -0.390625 4.3125 -0.390625 C 4.3125 -0.316406 4.304688 -0.25 4.296875 -0.1875 C 4.285156 -0.125 4.269531 -0.0625 4.25 0 C 4.007812 0 3.785156 0.00390625 3.578125 0.015625 C 3.367188 0.0234375 3.191406 0.0390625 3.046875 0.0625 C 2.984375 -0.0625 2.925781 -0.171875 2.875 -0.265625 C 2.832031 -0.367188 2.789062 -0.46875 2.75 -0.5625 C 2.707031 -0.65625 2.660156 -0.757812 2.609375 -0.875 C 2.546875 -1.019531 2.484375 -1.144531 2.421875 -1.25 C 2.359375 -1.363281 2.289062 -1.46875 2.21875 -1.5625 C 2.15625 -1.632812 2.082031 -1.707031 2 -1.78125 L 1.875 -1.78125 C 1.8125 -1.78125 1.742188 -1.78125 1.671875 -1.78125 L 1.671875 -1.03125 C 1.671875 -0.84375 1.679688 -0.703125 1.703125 -0.609375 C 1.734375 -0.515625 1.773438 -0.453125 1.828125 -0.421875 C 1.878906 -0.390625 1.945312 -0.367188 2.03125 -0.359375 C 2.039062 -0.328125 2.050781 -0.273438 2.0625 -0.203125 C 2.070312 -0.128906 2.078125 -0.0546875 2.078125 0.015625 C 1.992188 0.015625 1.890625 0.0078125 1.765625 0 C 1.648438 0 1.535156 0 1.421875 0 C 1.304688 0 1.210938 0 1.140625 0 C 0.992188 0 0.84375 0 0.6875 0 C 0.53125 0 0.390625 0.00390625 0.265625 0.015625 C 0.265625 -0.0546875 0.265625 -0.125 0.265625 -0.1875 C 0.273438 -0.25 0.289062 -0.304688 0.3125 -0.359375 C 0.425781 -0.367188 0.507812 -0.390625 0.5625 -0.421875 C 0.625 -0.460938 0.664062 -0.523438 0.6875 -0.609375 C 0.71875 -0.703125 0.734375 -0.832031 0.734375 -1 L 0.734375 -3.28125 C 0.734375 -3.445312 0.71875 -3.570312 0.6875 -3.65625 C 0.664062 -3.738281 0.625 -3.796875 0.5625 -3.828125 C 0.507812 -3.867188 0.421875 -3.894531 0.296875 -3.90625 C 0.285156 -3.945312 0.273438 -4.003906 0.265625 -4.078125 C 0.265625 -4.160156 0.265625 -4.226562 0.265625 -4.28125 C 0.359375 -4.269531 0.488281 -4.257812 0.65625 -4.25 C 0.832031 -4.25 1.015625 -4.25 1.203125 -4.25 C 1.335938 -4.25 1.507812 -4.253906 1.71875 -4.265625 C 1.9375 -4.273438 2.15625 -4.28125 2.375 -4.28125 C 2.71875 -4.28125 3 -4.226562 3.21875 -4.125 C 3.4375 -4.03125 3.597656 -3.894531 3.703125 -3.71875 C 3.804688 -3.550781 3.859375 -3.363281 3.859375 -3.15625 C 3.859375 -2.914062 3.804688 -2.707031 3.703125 -2.53125 C 3.609375 -2.351562 3.476562 -2.210938 3.3125 -2.109375 C 3.175781 -2.023438 3.03125 -1.960938 2.875 -1.921875 Z M 2.875 -1.921875 "/></g></g></g><g fill="#ffffff" fill-opacity="1"><g transform="translate(75.012066, 50.541611)"><g><path d="M 1.640625 -4.25 C 1.960938 -4.25 2.234375 -4.25 2.453125 -4.25 C 2.679688 -4.257812 2.867188 -4.265625 3.015625 -4.265625 C 3.171875 -4.265625 3.296875 -4.269531 3.390625 -4.28125 C 3.398438 -4.175781 3.410156 -4.054688 3.421875 -3.921875 C 3.429688 -3.796875 3.445312 -3.671875 3.46875 -3.546875 C 3.488281 -3.421875 3.507812 -3.3125 3.53125 -3.21875 C 3.46875 -3.1875 3.398438 -3.160156 3.328125 -3.140625 C 3.253906 -3.128906 3.164062 -3.125 3.0625 -3.125 C 3.039062 -3.257812 3 -3.382812 2.9375 -3.5 C 2.882812 -3.613281 2.789062 -3.707031 2.65625 -3.78125 C 2.53125 -3.851562 2.347656 -3.890625 2.109375 -3.890625 L 1.671875 -3.890625 L 1.671875 -2.3125 L 1.859375 -2.3125 C 2.097656 -2.3125 2.257812 -2.34375 2.34375 -2.40625 C 2.425781 -2.476562 2.46875 -2.609375 2.46875 -2.796875 C 2.53125 -2.816406 2.597656 -2.832031 2.671875 -2.84375 C 2.742188 -2.851562 2.820312 -2.859375 2.90625 -2.859375 C 2.894531 -2.753906 2.890625 -2.640625 2.890625 -2.515625 C 2.890625 -2.398438 2.890625 -2.273438 2.890625 -2.140625 C 2.890625 -1.992188 2.890625 -1.859375 2.890625 -1.734375 C 2.890625 -1.617188 2.894531 -1.507812 2.90625 -1.40625 C 2.8125 -1.40625 2.734375 -1.40625 2.671875 -1.40625 C 2.609375 -1.414062 2.546875 -1.429688 2.484375 -1.453125 C 2.460938 -1.648438 2.410156 -1.78125 2.328125 -1.84375 C 2.242188 -1.914062 2.085938 -1.953125 1.859375 -1.953125 L 1.671875 -1.953125 L 1.671875 -1.046875 C 1.671875 -0.867188 1.6875 -0.734375 1.71875 -0.640625 C 1.75 -0.546875 1.800781 -0.476562 1.875 -0.4375 C 1.957031 -0.40625 2.066406 -0.390625 2.203125 -0.390625 L 2.28125 -0.390625 C 2.5 -0.390625 2.671875 -0.414062 2.796875 -0.46875 C 2.921875 -0.53125 3.019531 -0.617188 3.09375 -0.734375 C 3.164062 -0.859375 3.234375 -1.015625 3.296875 -1.203125 C 3.390625 -1.191406 3.476562 -1.171875 3.5625 -1.140625 C 3.644531 -1.109375 3.710938 -1.070312 3.765625 -1.03125 C 3.710938 -0.882812 3.671875 -0.71875 3.640625 -0.53125 C 3.609375 -0.34375 3.582031 -0.160156 3.5625 0.015625 C 3.457031 0.00390625 3.320312 0 3.15625 0 C 3 0 2.820312 0 2.625 0 C 2.4375 0 2.25 0 2.0625 0 C 1.945312 0 1.800781 0 1.625 0 C 1.457031 0 1.285156 0 1.109375 0 C 0.929688 0.0078125 0.765625 0.015625 0.609375 0.015625 C 0.453125 0.015625 0.335938 0.015625 0.265625 0.015625 C 0.265625 -0.0546875 0.265625 -0.125 0.265625 -0.1875 C 0.273438 -0.257812 0.289062 -0.316406 0.3125 -0.359375 C 0.425781 -0.367188 0.507812 -0.390625 0.5625 -0.421875 C 0.625 -0.460938 0.664062 -0.53125 0.6875 -0.625 C 0.71875 -0.71875 0.734375 -0.851562 0.734375 -1.03125 L 0.734375 -3.265625 C 0.734375 -3.429688 0.71875 -3.554688 0.6875 -3.640625 C 0.664062 -3.722656 0.625 -3.78125 0.5625 -3.8125 C 0.507812 -3.851562 0.421875 -3.878906 0.296875 -3.890625 C 0.285156 -3.929688 0.273438 -3.988281 0.265625 -4.0625 C 0.265625 -4.144531 0.265625 -4.21875 0.265625 -4.28125 C 0.347656 -4.269531 0.445312 -4.265625 0.5625 -4.265625 C 0.6875 -4.265625 0.816406 -4.257812 0.953125 -4.25 C 1.097656 -4.25 1.234375 -4.25 1.359375 -4.25 Z M 1.640625 -4.25 "/></g></g></g><g fill="#ffffff" fill-opacity="1"><g transform="translate(78.939104, 50.541611)"><g><path d="M 1.71875 0.0625 C 1.445312 0.0625 1.195312 0.03125 0.96875 -0.03125 C 0.738281 -0.101562 0.515625 -0.195312 0.296875 -0.3125 C 0.328125 -0.488281 0.347656 -0.660156 0.359375 -0.828125 C 0.367188 -1.003906 0.375 -1.160156 0.375 -1.296875 C 0.457031 -1.328125 0.546875 -1.34375 0.640625 -1.34375 C 0.742188 -1.351562 0.84375 -1.359375 0.9375 -1.359375 C 0.957031 -1.128906 0.992188 -0.9375 1.046875 -0.78125 C 1.097656 -0.632812 1.175781 -0.523438 1.28125 -0.453125 C 1.394531 -0.390625 1.550781 -0.359375 1.75 -0.359375 C 1.988281 -0.359375 2.160156 -0.410156 2.265625 -0.515625 C 2.378906 -0.617188 2.4375 -0.742188 2.4375 -0.890625 C 2.4375 -1.035156 2.382812 -1.15625 2.28125 -1.25 C 2.1875 -1.351562 2.0625 -1.441406 1.90625 -1.515625 C 1.75 -1.585938 1.582031 -1.664062 1.40625 -1.75 C 1.238281 -1.832031 1.070312 -1.925781 0.90625 -2.03125 C 0.75 -2.144531 0.625 -2.285156 0.53125 -2.453125 C 0.4375 -2.628906 0.390625 -2.84375 0.390625 -3.09375 C 0.390625 -3.375 0.445312 -3.601562 0.5625 -3.78125 C 0.6875 -3.957031 0.851562 -4.085938 1.0625 -4.171875 C 1.28125 -4.265625 1.519531 -4.3125 1.78125 -4.3125 C 1.9375 -4.3125 2.085938 -4.296875 2.234375 -4.265625 C 2.390625 -4.242188 2.53125 -4.210938 2.65625 -4.171875 C 2.78125 -4.128906 2.882812 -4.082031 2.96875 -4.03125 C 2.96875 -3.882812 2.96875 -3.722656 2.96875 -3.546875 C 2.976562 -3.378906 2.992188 -3.242188 3.015625 -3.140625 C 2.941406 -3.109375 2.847656 -3.082031 2.734375 -3.0625 C 2.628906 -3.050781 2.539062 -3.046875 2.46875 -3.046875 C 2.425781 -3.273438 2.367188 -3.453125 2.296875 -3.578125 C 2.234375 -3.703125 2.15625 -3.789062 2.0625 -3.84375 C 1.96875 -3.894531 1.859375 -3.921875 1.734375 -3.921875 C 1.566406 -3.921875 1.425781 -3.878906 1.3125 -3.796875 C 1.207031 -3.710938 1.15625 -3.59375 1.15625 -3.4375 C 1.15625 -3.28125 1.203125 -3.148438 1.296875 -3.046875 C 1.398438 -2.941406 1.535156 -2.847656 1.703125 -2.765625 C 1.867188 -2.679688 2.039062 -2.597656 2.21875 -2.515625 C 2.40625 -2.429688 2.578125 -2.332031 2.734375 -2.21875 C 2.890625 -2.113281 3.019531 -1.976562 3.125 -1.8125 C 3.226562 -1.644531 3.28125 -1.441406 3.28125 -1.203125 C 3.28125 -0.960938 3.222656 -0.742188 3.109375 -0.546875 C 2.992188 -0.359375 2.820312 -0.207031 2.59375 -0.09375 C 2.363281 0.0078125 2.070312 0.0625 1.71875 0.0625 Z M 1.71875 0.0625 "/></g></g></g><g fill="#ffffff" fill-opacity="1"><g transform="translate(82.451315, 50.541611)"><g><path d="M 1.640625 -4.25 C 1.960938 -4.25 2.234375 -4.25 2.453125 -4.25 C 2.679688 -4.257812 2.867188 -4.265625 3.015625 -4.265625 C 3.171875 -4.265625 3.296875 -4.269531 3.390625 -4.28125 C 3.398438 -4.175781 3.410156 -4.054688 3.421875 -3.921875 C 3.429688 -3.796875 3.445312 -3.671875 3.46875 -3.546875 C 3.488281 -3.421875 3.507812 -3.3125 3.53125 -3.21875 C 3.46875 -3.1875 3.398438 -3.160156 3.328125 -3.140625 C 3.253906 -3.128906 3.164062 -3.125 3.0625 -3.125 C 3.039062 -3.257812 3 -3.382812 2.9375 -3.5 C 2.882812 -3.613281 2.789062 -3.707031 2.65625 -3.78125 C 2.53125 -3.851562 2.347656 -3.890625 2.109375 -3.890625 L 1.671875 -3.890625 L 1.671875 -2.3125 L 1.859375 -2.3125 C 2.097656 -2.3125 2.257812 -2.34375 2.34375 -2.40625 C 2.425781 -2.476562 2.46875 -2.609375 2.46875 -2.796875 C 2.53125 -2.816406 2.597656 -2.832031 2.671875 -2.84375 C 2.742188 -2.851562 2.820312 -2.859375 2.90625 -2.859375 C 2.894531 -2.753906 2.890625 -2.640625 2.890625 -2.515625 C 2.890625 -2.398438 2.890625 -2.273438 2.890625 -2.140625 C 2.890625 -1.992188 2.890625 -1.859375 2.890625 -1.734375 C 2.890625 -1.617188 2.894531 -1.507812 2.90625 -1.40625 C 2.8125 -1.40625 2.734375 -1.40625 2.671875 -1.40625 C 2.609375 -1.414062 2.546875 -1.429688 2.484375 -1.453125 C 2.460938 -1.648438 2.410156 -1.78125 2.328125 -1.84375 C 2.242188 -1.914062 2.085938 -1.953125 1.859375 -1.953125 L 1.671875 -1.953125 L 1.671875 -1.046875 C 1.671875 -0.867188 1.6875 -0.734375 1.71875 -0.640625 C 1.75 -0.546875 1.800781 -0.476562 1.875 -0.4375 C 1.957031 -0.40625 2.066406 -0.390625 2.203125 -0.390625 L 2.28125 -0.390625 C 2.5 -0.390625 2.671875 -0.414062 2.796875 -0.46875 C 2.921875 -0.53125 3.019531 -0.617188 3.09375 -0.734375 C 3.164062 -0.859375 3.234375 -1.015625 3.296875 -1.203125 C 3.390625 -1.191406 3.476562 -1.171875 3.5625 -1.140625 C 3.644531 -1.109375 3.710938 -1.070312 3.765625 -1.03125 C 3.710938 -0.882812 3.671875 -0.71875 3.640625 -0.53125 C 3.609375 -0.34375 3.582031 -0.160156 3.5625 0.015625 C 3.457031 0.00390625 3.320312 0 3.15625 0 C 3 0 2.820312 0 2.625 0 C 2.4375 0 2.25 0 2.0625 0 C 1.945312 0 1.800781 0 1.625 0 C 1.457031 0 1.285156 0 1.109375 0 C 0.929688 0.0078125 0.765625 0.015625 0.609375 0.015625 C 0.453125 0.015625 0.335938 0.015625 0.265625 0.015625 C 0.265625 -0.0546875 0.265625 -0.125 0.265625 -0.1875 C 0.273438 -0.257812 0.289062 -0.316406 0.3125 -0.359375 C 0.425781 -0.367188 0.507812 -0.390625 0.5625 -0.421875 C 0.625 -0.460938 0.664062 -0.53125 0.6875 -0.625 C 0.71875 -0.71875 0.734375 -0.851562 0.734375 -1.03125 L 0.734375 -3.265625 C 0.734375 -3.429688 0.71875 -3.554688 0.6875 -3.640625 C 0.664062 -3.722656 0.625 -3.78125 0.5625 -3.8125 C 0.507812 -3.851562 0.421875 -3.878906 0.296875 -3.890625 C 0.285156 -3.929688 0.273438 -3.988281 0.265625 -4.0625 C 0.265625 -4.144531 0.265625 -4.21875 0.265625 -4.28125 C 0.347656 -4.269531 0.445312 -4.265625 0.5625 -4.265625 C 0.6875 -4.265625 0.816406 -4.257812 0.953125 -4.25 C 1.097656 -4.25 1.234375 -4.25 1.359375 -4.25 Z M 1.640625 -4.25 "/></g></g></g><g fill="#ffffff" fill-opacity="1"><g transform="translate(86.378353, 50.541611)"><g><path d="M 2.546875 -1.5625 L 2.1875 -2.375 C 2.101562 -2.5625 2.035156 -2.738281 1.984375 -2.90625 C 1.953125 -2.988281 1.921875 -3.078125 1.890625 -3.171875 C 1.867188 -3.078125 1.84375 -2.984375 1.8125 -2.890625 C 1.75 -2.722656 1.6875 -2.550781 1.625 -2.375 L 1.296875 -1.5625 Z M 1.15625 -1.15625 L 1.0625 -0.9375 C 1 -0.769531 0.984375 -0.632812 1.015625 -0.53125 C 1.046875 -0.4375 1.140625 -0.378906 1.296875 -0.359375 C 1.316406 -0.304688 1.328125 -0.25 1.328125 -0.1875 C 1.335938 -0.125 1.34375 -0.0546875 1.34375 0.015625 C 1.289062 0.015625 1.226562 0.0078125 1.15625 0 C 1.082031 0 1 0 0.90625 0 C 0.820312 0 0.742188 0 0.671875 0 C 0.566406 0 0.460938 0 0.359375 0 C 0.253906 0 0.171875 0.00390625 0.109375 0.015625 C 0.109375 -0.0546875 0.109375 -0.125 0.109375 -0.1875 C 0.117188 -0.25 0.132812 -0.304688 0.15625 -0.359375 C 0.226562 -0.378906 0.289062 -0.40625 0.34375 -0.4375 C 0.394531 -0.476562 0.441406 -0.546875 0.484375 -0.640625 C 0.535156 -0.734375 0.597656 -0.859375 0.671875 -1.015625 L 1.984375 -4.265625 C 2.046875 -4.285156 2.101562 -4.296875 2.15625 -4.296875 C 2.207031 -4.296875 2.273438 -4.296875 2.359375 -4.296875 L 3.796875 -1.046875 C 3.878906 -0.859375 3.945312 -0.71875 4 -0.625 C 4.0625 -0.53125 4.113281 -0.46875 4.15625 -0.4375 C 4.207031 -0.40625 4.265625 -0.378906 4.328125 -0.359375 C 4.335938 -0.304688 4.347656 -0.25 4.359375 -0.1875 C 4.367188 -0.125 4.375 -0.0546875 4.375 0.015625 C 4.300781 0.00390625 4.207031 0 4.09375 0 C 3.988281 0 3.878906 0 3.765625 0 C 3.660156 0 3.578125 0 3.515625 0 C 3.460938 0 3.390625 0 3.296875 0 C 3.210938 0 3.125 0 3.03125 0 C 2.945312 0 2.863281 0 2.78125 0 C 2.695312 0.0078125 2.632812 0.015625 2.59375 0.015625 C 2.59375 -0.0664062 2.59375 -0.132812 2.59375 -0.1875 C 2.601562 -0.25 2.617188 -0.304688 2.640625 -0.359375 C 2.796875 -0.390625 2.882812 -0.4375 2.90625 -0.5 C 2.9375 -0.5625 2.914062 -0.675781 2.84375 -0.84375 L 2.6875 -1.203125 C 2.4375 -1.203125 2.175781 -1.203125 1.90625 -1.203125 C 1.644531 -1.191406 1.394531 -1.175781 1.15625 -1.15625 Z M 1.15625 -1.15625 "/></g></g></g><g fill="#ffffff" fill-opacity="1"><g transform="translate(90.85235, 50.541611)"><g><path d="M 1.671875 -3.84375 L 1.671875 -2.1875 C 1.710938 -2.175781 1.75 -2.171875 1.78125 -2.171875 C 1.820312 -2.171875 1.863281 -2.171875 1.90625 -2.171875 C 2.082031 -2.171875 2.238281 -2.203125 2.375 -2.265625 C 2.519531 -2.328125 2.640625 -2.421875 2.734375 -2.546875 C 2.828125 -2.679688 2.875 -2.847656 2.875 -3.046875 C 2.875 -3.304688 2.804688 -3.515625 2.671875 -3.671875 C 2.535156 -3.828125 2.320312 -3.90625 2.03125 -3.90625 C 1.957031 -3.90625 1.890625 -3.898438 1.828125 -3.890625 C 1.785156 -3.878906 1.734375 -3.863281 1.671875 -3.84375 Z M 2.875 -1.921875 C 2.96875 -1.859375 3.046875 -1.796875 3.109375 -1.734375 C 3.191406 -1.648438 3.269531 -1.546875 3.34375 -1.421875 C 3.425781 -1.296875 3.523438 -1.117188 3.640625 -0.890625 C 3.710938 -0.765625 3.773438 -0.664062 3.828125 -0.59375 C 3.890625 -0.519531 3.957031 -0.46875 4.03125 -0.4375 C 4.101562 -0.40625 4.195312 -0.390625 4.3125 -0.390625 C 4.3125 -0.316406 4.304688 -0.25 4.296875 -0.1875 C 4.285156 -0.125 4.269531 -0.0625 4.25 0 C 4.007812 0 3.785156 0.00390625 3.578125 0.015625 C 3.367188 0.0234375 3.191406 0.0390625 3.046875 0.0625 C 2.984375 -0.0625 2.925781 -0.171875 2.875 -0.265625 C 2.832031 -0.367188 2.789062 -0.46875 2.75 -0.5625 C 2.707031 -0.65625 2.660156 -0.757812 2.609375 -0.875 C 2.546875 -1.019531 2.484375 -1.144531 2.421875 -1.25 C 2.359375 -1.363281 2.289062 -1.46875 2.21875 -1.5625 C 2.15625 -1.632812 2.082031 -1.707031 2 -1.78125 L 1.875 -1.78125 C 1.8125 -1.78125 1.742188 -1.78125 1.671875 -1.78125 L 1.671875 -1.03125 C 1.671875 -0.84375 1.679688 -0.703125 1.703125 -0.609375 C 1.734375 -0.515625 1.773438 -0.453125 1.828125 -0.421875 C 1.878906 -0.390625 1.945312 -0.367188 2.03125 -0.359375 C 2.039062 -0.328125 2.050781 -0.273438 2.0625 -0.203125 C 2.070312 -0.128906 2.078125 -0.0546875 2.078125 0.015625 C 1.992188 0.015625 1.890625 0.0078125 1.765625 0 C 1.648438 0 1.535156 0 1.421875 0 C 1.304688 0 1.210938 0 1.140625 0 C 0.992188 0 0.84375 0 0.6875 0 C 0.53125 0 0.390625 0.00390625 0.265625 0.015625 C 0.265625 -0.0546875 0.265625 -0.125 0.265625 -0.1875 C 0.273438 -0.25 0.289062 -0.304688 0.3125 -0.359375 C 0.425781 -0.367188 0.507812 -0.390625 0.5625 -0.421875 C 0.625 -0.460938 0.664062 -0.523438 0.6875 -0.609375 C 0.71875 -0.703125 0.734375 -0.832031 0.734375 -1 L 0.734375 -3.28125 C 0.734375 -3.445312 0.71875 -3.570312 0.6875 -3.65625 C 0.664062 -3.738281 0.625 -3.796875 0.5625 -3.828125 C 0.507812 -3.867188 0.421875 -3.894531 0.296875 -3.90625 C 0.285156 -3.945312 0.273438 -4.003906 0.265625 -4.078125 C 0.265625 -4.160156 0.265625 -4.226562 0.265625 -4.28125 C 0.359375 -4.269531 0.488281 -4.257812 0.65625 -4.25 C 0.832031 -4.25 1.015625 -4.25 1.203125 -4.25 C 1.335938 -4.25 1.507812 -4.253906 1.71875 -4.265625 C 1.9375 -4.273438 2.15625 -4.28125 2.375 -4.28125 C 2.71875 -4.28125 3 -4.226562 3.21875 -4.125 C 3.4375 -4.03125 3.597656 -3.894531 3.703125 -3.71875 C 3.804688 -3.550781 3.859375 -3.363281 3.859375 -3.15625 C 3.859375 -2.914062 3.804688 -2.707031 3.703125 -2.53125 C 3.609375 -2.351562 3.476562 -2.210938 3.3125 -2.109375 C 3.175781 -2.023438 3.03125 -1.960938 2.875 -1.921875 Z M 2.875 -1.921875 "/></g></g></g><g fill="#ffffff" fill-opacity="1"><g transform="translate(95.271037, 50.541611)"><g><path d="M 2.3125 0.0625 C 1.894531 0.0625 1.53125 -0.03125 1.21875 -0.21875 C 0.90625 -0.40625 0.660156 -0.664062 0.484375 -1 C 0.304688 -1.332031 0.21875 -1.71875 0.21875 -2.15625 C 0.21875 -2.507812 0.273438 -2.820312 0.390625 -3.09375 C 0.515625 -3.363281 0.675781 -3.585938 0.875 -3.765625 C 1.070312 -3.953125 1.300781 -4.085938 1.5625 -4.171875 C 1.820312 -4.265625 2.085938 -4.3125 2.359375 -4.3125 C 2.609375 -4.3125 2.84375 -4.28125 3.0625 -4.21875 C 3.289062 -4.164062 3.519531 -4.085938 3.75 -3.984375 C 3.726562 -3.835938 3.707031 -3.679688 3.6875 -3.515625 C 3.675781 -3.347656 3.671875 -3.179688 3.671875 -3.015625 C 3.617188 -2.984375 3.546875 -2.960938 3.453125 -2.953125 C 3.367188 -2.941406 3.28125 -2.9375 3.1875 -2.9375 C 3.1875 -3.1875 3.148438 -3.382812 3.078125 -3.53125 C 3.015625 -3.6875 2.921875 -3.789062 2.796875 -3.84375 C 2.679688 -3.90625 2.546875 -3.9375 2.390625 -3.9375 C 2.179688 -3.9375 2 -3.890625 1.84375 -3.796875 C 1.695312 -3.710938 1.578125 -3.59375 1.484375 -3.4375 C 1.390625 -3.28125 1.320312 -3.101562 1.28125 -2.90625 C 1.238281 -2.71875 1.21875 -2.519531 1.21875 -2.3125 C 1.21875 -1.96875 1.269531 -1.648438 1.375 -1.359375 C 1.476562 -1.078125 1.632812 -0.851562 1.84375 -0.6875 C 2.050781 -0.519531 2.3125 -0.4375 2.625 -0.4375 C 2.800781 -0.4375 2.976562 -0.460938 3.15625 -0.515625 C 3.34375 -0.566406 3.519531 -0.644531 3.6875 -0.75 C 3.71875 -0.71875 3.75 -0.675781 3.78125 -0.625 C 3.8125 -0.570312 3.832031 -0.523438 3.84375 -0.484375 C 3.632812 -0.316406 3.40625 -0.179688 3.15625 -0.078125 C 2.914062 0.015625 2.632812 0.0625 2.3125 0.0625 Z M 2.3125 0.0625 "/></g></g></g><g fill="#ffffff" fill-opacity="1"><g transform="translate(99.317915, 50.541611)"><g><path d="M 1.671875 -1.953125 L 1.671875 -1 C 1.671875 -0.832031 1.679688 -0.703125 1.703125 -0.609375 C 1.734375 -0.523438 1.78125 -0.460938 1.84375 -0.421875 C 1.90625 -0.390625 1.988281 -0.367188 2.09375 -0.359375 C 2.113281 -0.316406 2.125 -0.257812 2.125 -0.1875 C 2.132812 -0.125 2.140625 -0.0546875 2.140625 0.015625 C 2.035156 0.00390625 1.90625 0 1.75 0 C 1.59375 0 1.425781 0 1.25 0 C 1.082031 0 0.90625 0 0.71875 0 C 0.539062 0 0.390625 0.00390625 0.265625 0.015625 C 0.265625 -0.046875 0.269531 -0.113281 0.28125 -0.1875 C 0.289062 -0.257812 0.300781 -0.316406 0.3125 -0.359375 C 0.425781 -0.367188 0.515625 -0.390625 0.578125 -0.421875 C 0.640625 -0.460938 0.679688 -0.523438 0.703125 -0.609375 C 0.722656 -0.703125 0.734375 -0.832031 0.734375 -1 L 0.734375 -3.265625 C 0.734375 -3.429688 0.722656 -3.554688 0.703125 -3.640625 C 0.679688 -3.722656 0.640625 -3.78125 0.578125 -3.8125 C 0.515625 -3.851562 0.425781 -3.878906 0.3125 -3.890625 C 0.289062 -3.929688 0.273438 -3.988281 0.265625 -4.0625 C 0.265625 -4.132812 0.265625 -4.207031 0.265625 -4.28125 C 0.335938 -4.269531 0.425781 -4.265625 0.53125 -4.265625 C 0.644531 -4.265625 0.765625 -4.257812 0.890625 -4.25 C 1.015625 -4.25 1.125 -4.25 1.21875 -4.25 C 1.3125 -4.25 1.410156 -4.25 1.515625 -4.25 C 1.628906 -4.257812 1.738281 -4.265625 1.84375 -4.265625 C 1.957031 -4.265625 2.054688 -4.269531 2.140625 -4.28125 C 2.140625 -4.207031 2.132812 -4.140625 2.125 -4.078125 C 2.125 -4.015625 2.113281 -3.953125 2.09375 -3.890625 C 1.976562 -3.878906 1.890625 -3.851562 1.828125 -3.8125 C 1.773438 -3.78125 1.734375 -3.722656 1.703125 -3.640625 C 1.679688 -3.554688 1.671875 -3.429688 1.671875 -3.265625 L 1.671875 -2.390625 L 3.234375 -2.390625 L 3.234375 -3.265625 C 3.234375 -3.429688 3.21875 -3.554688 3.1875 -3.640625 C 3.164062 -3.722656 3.125 -3.78125 3.0625 -3.8125 C 3.007812 -3.851562 2.925781 -3.878906 2.8125 -3.890625 C 2.789062 -3.929688 2.773438 -3.988281 2.765625 -4.0625 C 2.765625 -4.132812 2.765625 -4.207031 2.765625 -4.28125 C 2.835938 -4.269531 2.925781 -4.265625 3.03125 -4.265625 C 3.144531 -4.265625 3.265625 -4.257812 3.390625 -4.25 C 3.515625 -4.25 3.625 -4.25 3.71875 -4.25 C 3.8125 -4.25 3.910156 -4.25 4.015625 -4.25 C 4.128906 -4.257812 4.238281 -4.265625 4.34375 -4.265625 C 4.445312 -4.265625 4.546875 -4.269531 4.640625 -4.28125 C 4.640625 -4.207031 4.632812 -4.140625 4.625 -4.078125 C 4.625 -4.015625 4.613281 -3.953125 4.59375 -3.890625 C 4.476562 -3.878906 4.390625 -3.851562 4.328125 -3.8125 C 4.265625 -3.78125 4.222656 -3.722656 4.203125 -3.640625 C 4.179688 -3.554688 4.171875 -3.429688 4.171875 -3.265625 L 4.171875 -1 C 4.171875 -0.832031 4.179688 -0.703125 4.203125 -0.609375 C 4.234375 -0.523438 4.273438 -0.460938 4.328125 -0.421875 C 4.390625 -0.390625 4.476562 -0.367188 4.59375 -0.359375 C 4.601562 -0.316406 4.613281 -0.257812 4.625 -0.1875 C 4.632812 -0.125 4.640625 -0.0546875 4.640625 0.015625 C 4.523438 0.00390625 4.390625 0 4.234375 0 C 4.078125 0 3.914062 0 3.75 0 C 3.570312 0 3.394531 0 3.21875 0 C 3.039062 0 2.890625 0.00390625 2.765625 0.015625 C 2.765625 -0.046875 2.765625 -0.113281 2.765625 -0.1875 C 2.773438 -0.257812 2.789062 -0.316406 2.8125 -0.359375 C 2.925781 -0.367188 3.007812 -0.390625 3.0625 -0.421875 C 3.125 -0.460938 3.164062 -0.523438 3.1875 -0.609375 C 3.21875 -0.703125 3.234375 -0.832031 3.234375 -1 L 3.234375 -2 L 2.890625 -2 C 2.742188 -2 2.59375 -1.992188 2.4375 -1.984375 C 2.289062 -1.984375 2.148438 -1.976562 2.015625 -1.96875 C 1.890625 -1.96875 1.773438 -1.960938 1.671875 -1.953125 Z M 1.671875 -1.953125 "/></g></g></g><g fill="#ffffff" fill-opacity="1"><g transform="translate(104.219031, 50.541611)"><g/></g></g><g fill="#ffffff" fill-opacity="1"><g transform="translate(105.681684, 50.541611)"><g><path d="M 2.546875 -1.5625 L 2.1875 -2.375 C 2.101562 -2.5625 2.035156 -2.738281 1.984375 -2.90625 C 1.953125 -2.988281 1.921875 -3.078125 1.890625 -3.171875 C 1.867188 -3.078125 1.84375 -2.984375 1.8125 -2.890625 C 1.75 -2.722656 1.6875 -2.550781 1.625 -2.375 L 1.296875 -1.5625 Z M 1.15625 -1.15625 L 1.0625 -0.9375 C 1 -0.769531 0.984375 -0.632812 1.015625 -0.53125 C 1.046875 -0.4375 1.140625 -0.378906 1.296875 -0.359375 C 1.316406 -0.304688 1.328125 -0.25 1.328125 -0.1875 C 1.335938 -0.125 1.34375 -0.0546875 1.34375 0.015625 C 1.289062 0.015625 1.226562 0.0078125 1.15625 0 C 1.082031 0 1 0 0.90625 0 C 0.820312 0 0.742188 0 0.671875 0 C 0.566406 0 0.460938 0 0.359375 0 C 0.253906 0 0.171875 0.00390625 0.109375 0.015625 C 0.109375 -0.0546875 0.109375 -0.125 0.109375 -0.1875 C 0.117188 -0.25 0.132812 -0.304688 0.15625 -0.359375 C 0.226562 -0.378906 0.289062 -0.40625 0.34375 -0.4375 C 0.394531 -0.476562 0.441406 -0.546875 0.484375 -0.640625 C 0.535156 -0.734375 0.597656 -0.859375 0.671875 -1.015625 L 1.984375 -4.265625 C 2.046875 -4.285156 2.101562 -4.296875 2.15625 -4.296875 C 2.207031 -4.296875 2.273438 -4.296875 2.359375 -4.296875 L 3.796875 -1.046875 C 3.878906 -0.859375 3.945312 -0.71875 4 -0.625 C 4.0625 -0.53125 4.113281 -0.46875 4.15625 -0.4375 C 4.207031 -0.40625 4.265625 -0.378906 4.328125 -0.359375 C 4.335938 -0.304688 4.347656 -0.25 4.359375 -0.1875 C 4.367188 -0.125 4.375 -0.0546875 4.375 0.015625 C 4.300781 0.00390625 4.207031 0 4.09375 0 C 3.988281 0 3.878906 0 3.765625 0 C 3.660156 0 3.578125 0 3.515625 0 C 3.460938 0 3.390625 0 3.296875 0 C 3.210938 0 3.125 0 3.03125 0 C 2.945312 0 2.863281 0 2.78125 0 C 2.695312 0.0078125 2.632812 0.015625 2.59375 0.015625 C 2.59375 -0.0664062 2.59375 -0.132812 2.59375 -0.1875 C 2.601562 -0.25 2.617188 -0.304688 2.640625 -0.359375 C 2.796875 -0.390625 2.882812 -0.4375 2.90625 -0.5 C 2.9375 -0.5625 2.914062 -0.675781 2.84375 -0.84375 L 2.6875 -1.203125 C 2.4375 -1.203125 2.175781 -1.203125 1.90625 -1.203125 C 1.644531 -1.191406 1.394531 -1.175781 1.15625 -1.15625 Z M 1.15625 -1.15625 "/></g></g></g><g fill="#ffffff" fill-opacity="1"><g transform="translate(110.155681, 50.541611)"><g><path d="M 3.53125 -1.484375 L 3.53125 -2.984375 C 3.53125 -3.222656 3.515625 -3.40625 3.484375 -3.53125 C 3.460938 -3.65625 3.414062 -3.742188 3.34375 -3.796875 C 3.269531 -3.847656 3.171875 -3.878906 3.046875 -3.890625 C 3.023438 -3.960938 3.007812 -4.03125 3 -4.09375 C 3 -4.15625 3 -4.21875 3 -4.28125 C 3.0625 -4.269531 3.132812 -4.265625 3.21875 -4.265625 C 3.300781 -4.265625 3.382812 -4.257812 3.46875 -4.25 C 3.5625 -4.25 3.644531 -4.25 3.71875 -4.25 C 3.8125 -4.25 3.921875 -4.25 4.046875 -4.25 C 4.171875 -4.257812 4.269531 -4.269531 4.34375 -4.28125 C 4.34375 -4.21875 4.34375 -4.148438 4.34375 -4.078125 C 4.34375 -4.015625 4.332031 -3.953125 4.3125 -3.890625 C 4.207031 -3.878906 4.128906 -3.847656 4.078125 -3.796875 C 4.023438 -3.742188 3.984375 -3.65625 3.953125 -3.53125 C 3.929688 -3.40625 3.921875 -3.222656 3.921875 -2.984375 L 3.921875 0 C 3.867188 0.0195312 3.804688 0.03125 3.734375 0.03125 C 3.660156 0.0390625 3.582031 0.046875 3.5 0.046875 L 1.140625 -3.09375 L 1.140625 -1.28125 C 1.140625 -1.039062 1.148438 -0.851562 1.171875 -0.71875 C 1.203125 -0.59375 1.25 -0.503906 1.3125 -0.453125 C 1.382812 -0.398438 1.484375 -0.367188 1.609375 -0.359375 C 1.617188 -0.304688 1.625 -0.25 1.625 -0.1875 C 1.632812 -0.125 1.640625 -0.0546875 1.640625 0.015625 C 1.578125 0.015625 1.503906 0.0078125 1.421875 0 C 1.335938 0 1.253906 0 1.171875 0 C 1.085938 0 1.015625 0 0.953125 0 C 0.878906 0 0.796875 0 0.703125 0 C 0.609375 0 0.515625 0 0.421875 0 C 0.335938 0.0078125 0.269531 0.015625 0.21875 0.015625 C 0.21875 -0.0546875 0.21875 -0.125 0.21875 -0.1875 C 0.226562 -0.25 0.242188 -0.304688 0.265625 -0.359375 C 0.378906 -0.367188 0.472656 -0.398438 0.546875 -0.453125 C 0.617188 -0.503906 0.664062 -0.59375 0.6875 -0.71875 C 0.71875 -0.851562 0.734375 -1.039062 0.734375 -1.28125 L 0.734375 -3.625 L 0.671875 -3.703125 C 0.628906 -3.765625 0.578125 -3.804688 0.515625 -3.828125 C 0.460938 -3.859375 0.378906 -3.878906 0.265625 -3.890625 C 0.242188 -3.953125 0.226562 -4.015625 0.21875 -4.078125 C 0.21875 -4.148438 0.21875 -4.21875 0.21875 -4.28125 C 0.269531 -4.269531 0.332031 -4.265625 0.40625 -4.265625 C 0.488281 -4.265625 0.570312 -4.257812 0.65625 -4.25 C 0.738281 -4.25 0.8125 -4.25 0.875 -4.25 C 0.96875 -4.25 1.066406 -4.25 1.171875 -4.25 C 1.285156 -4.257812 1.378906 -4.269531 1.453125 -4.28125 Z M 3.53125 -1.484375 "/></g></g></g><g fill="#ffffff" fill-opacity="1"><g transform="translate(114.724934, 50.541611)"><g><path d="M 1.671875 -3.84375 L 1.671875 -1.046875 C 1.671875 -0.867188 1.6875 -0.734375 1.71875 -0.640625 C 1.75 -0.546875 1.800781 -0.476562 1.875 -0.4375 C 1.957031 -0.40625 2.066406 -0.390625 2.203125 -0.390625 C 2.347656 -0.390625 2.492188 -0.410156 2.640625 -0.453125 C 2.785156 -0.492188 2.914062 -0.578125 3.03125 -0.703125 C 3.15625 -0.828125 3.253906 -1.003906 3.328125 -1.234375 C 3.398438 -1.460938 3.4375 -1.757812 3.4375 -2.125 C 3.4375 -2.46875 3.394531 -2.753906 3.3125 -2.984375 C 3.238281 -3.210938 3.132812 -3.390625 3 -3.515625 C 2.863281 -3.648438 2.710938 -3.75 2.546875 -3.8125 C 2.378906 -3.875 2.207031 -3.90625 2.03125 -3.90625 C 1.945312 -3.90625 1.863281 -3.898438 1.78125 -3.890625 C 1.738281 -3.878906 1.703125 -3.863281 1.671875 -3.84375 Z M 0.265625 0.015625 C 0.265625 -0.0546875 0.265625 -0.125 0.265625 -0.1875 C 0.273438 -0.257812 0.289062 -0.316406 0.3125 -0.359375 C 0.425781 -0.367188 0.507812 -0.390625 0.5625 -0.421875 C 0.625 -0.460938 0.664062 -0.53125 0.6875 -0.625 C 0.71875 -0.71875 0.734375 -0.851562 0.734375 -1.03125 L 0.734375 -3.265625 C 0.734375 -3.429688 0.722656 -3.554688 0.703125 -3.640625 C 0.679688 -3.722656 0.640625 -3.78125 0.578125 -3.8125 C 0.515625 -3.851562 0.425781 -3.878906 0.3125 -3.890625 C 0.289062 -3.929688 0.273438 -3.988281 0.265625 -4.0625 C 0.265625 -4.144531 0.265625 -4.21875 0.265625 -4.28125 C 0.347656 -4.269531 0.453125 -4.265625 0.578125 -4.265625 C 0.710938 -4.265625 0.847656 -4.257812 0.984375 -4.25 C 1.128906 -4.25 1.257812 -4.25 1.375 -4.25 C 1.476562 -4.25 1.585938 -4.25 1.703125 -4.25 C 1.828125 -4.257812 1.953125 -4.265625 2.078125 -4.265625 C 2.316406 -4.265625 2.546875 -4.25 2.765625 -4.21875 C 2.992188 -4.1875 3.207031 -4.128906 3.40625 -4.046875 C 3.601562 -3.960938 3.773438 -3.84375 3.921875 -3.6875 C 4.078125 -3.539062 4.195312 -3.347656 4.28125 -3.109375 C 4.363281 -2.867188 4.40625 -2.578125 4.40625 -2.234375 C 4.40625 -1.890625 4.363281 -1.597656 4.28125 -1.359375 C 4.195312 -1.117188 4.082031 -0.914062 3.9375 -0.75 C 3.800781 -0.582031 3.648438 -0.445312 3.484375 -0.34375 C 3.316406 -0.25 3.144531 -0.175781 2.96875 -0.125 C 2.789062 -0.0703125 2.625 -0.0351562 2.46875 -0.015625 C 2.3125 -0.00390625 2.175781 0 2.0625 0 C 1.945312 0 1.800781 0 1.625 0 C 1.457031 0 1.285156 0 1.109375 0 C 0.929688 0.0078125 0.765625 0.015625 0.609375 0.015625 C 0.453125 0.015625 0.335938 0.015625 0.265625 0.015625 Z M 0.265625 0.015625 "/></g></g></g><g fill="#ffffff" fill-opacity="1"><g transform="translate(119.349498, 50.541611)"><g/></g></g><g fill="#ffffff" fill-opacity="1"><g transform="translate(120.812151, 50.541611)"><g><path d="M 1.671875 -3.84375 L 1.671875 -1.046875 C 1.671875 -0.867188 1.6875 -0.734375 1.71875 -0.640625 C 1.75 -0.546875 1.800781 -0.476562 1.875 -0.4375 C 1.957031 -0.40625 2.066406 -0.390625 2.203125 -0.390625 C 2.347656 -0.390625 2.492188 -0.410156 2.640625 -0.453125 C 2.785156 -0.492188 2.914062 -0.578125 3.03125 -0.703125 C 3.15625 -0.828125 3.253906 -1.003906 3.328125 -1.234375 C 3.398438 -1.460938 3.4375 -1.757812 3.4375 -2.125 C 3.4375 -2.46875 3.394531 -2.753906 3.3125 -2.984375 C 3.238281 -3.210938 3.132812 -3.390625 3 -3.515625 C 2.863281 -3.648438 2.710938 -3.75 2.546875 -3.8125 C 2.378906 -3.875 2.207031 -3.90625 2.03125 -3.90625 C 1.945312 -3.90625 1.863281 -3.898438 1.78125 -3.890625 C 1.738281 -3.878906 1.703125 -3.863281 1.671875 -3.84375 Z M 0.265625 0.015625 C 0.265625 -0.0546875 0.265625 -0.125 0.265625 -0.1875 C 0.273438 -0.257812 0.289062 -0.316406 0.3125 -0.359375 C 0.425781 -0.367188 0.507812 -0.390625 0.5625 -0.421875 C 0.625 -0.460938 0.664062 -0.53125 0.6875 -0.625 C 0.71875 -0.71875 0.734375 -0.851562 0.734375 -1.03125 L 0.734375 -3.265625 C 0.734375 -3.429688 0.722656 -3.554688 0.703125 -3.640625 C 0.679688 -3.722656 0.640625 -3.78125 0.578125 -3.8125 C 0.515625 -3.851562 0.425781 -3.878906 0.3125 -3.890625 C 0.289062 -3.929688 0.273438 -3.988281 0.265625 -4.0625 C 0.265625 -4.144531 0.265625 -4.21875 0.265625 -4.28125 C 0.347656 -4.269531 0.453125 -4.265625 0.578125 -4.265625 C 0.710938 -4.265625 0.847656 -4.257812 0.984375 -4.25 C 1.128906 -4.25 1.257812 -4.25 1.375 -4.25 C 1.476562 -4.25 1.585938 -4.25 1.703125 -4.25 C 1.828125 -4.257812 1.953125 -4.265625 2.078125 -4.265625 C 2.316406 -4.265625 2.546875 -4.25 2.765625 -4.21875 C 2.992188 -4.1875 3.207031 -4.128906 3.40625 -4.046875 C 3.601562 -3.960938 3.773438 -3.84375 3.921875 -3.6875 C 4.078125 -3.539062 4.195312 -3.347656 4.28125 -3.109375 C 4.363281 -2.867188 4.40625 -2.578125 4.40625 -2.234375 C 4.40625 -1.890625 4.363281 -1.597656 4.28125 -1.359375 C 4.195312 -1.117188 4.082031 -0.914062 3.9375 -0.75 C 3.800781 -0.582031 3.648438 -0.445312 3.484375 -0.34375 C 3.316406 -0.25 3.144531 -0.175781 2.96875 -0.125 C 2.789062 -0.0703125 2.625 -0.0351562 2.46875 -0.015625 C 2.3125 -0.00390625 2.175781 0 2.0625 0 C 1.945312 0 1.800781 0 1.625 0 C 1.457031 0 1.285156 0 1.109375 0 C 0.929688 0.0078125 0.765625 0.015625 0.609375 0.015625 C 0.453125 0.015625 0.335938 0.015625 0.265625 0.015625 Z M 0.265625 0.015625 "/></g></g></g><g fill="#ffffff" fill-opacity="1"><g transform="translate(125.436715, 50.541611)"><g><path d="M 1.640625 -4.25 C 1.960938 -4.25 2.234375 -4.25 2.453125 -4.25 C 2.679688 -4.257812 2.867188 -4.265625 3.015625 -4.265625 C 3.171875 -4.265625 3.296875 -4.269531 3.390625 -4.28125 C 3.398438 -4.175781 3.410156 -4.054688 3.421875 -3.921875 C 3.429688 -3.796875 3.445312 -3.671875 3.46875 -3.546875 C 3.488281 -3.421875 3.507812 -3.3125 3.53125 -3.21875 C 3.46875 -3.1875 3.398438 -3.160156 3.328125 -3.140625 C 3.253906 -3.128906 3.164062 -3.125 3.0625 -3.125 C 3.039062 -3.257812 3 -3.382812 2.9375 -3.5 C 2.882812 -3.613281 2.789062 -3.707031 2.65625 -3.78125 C 2.53125 -3.851562 2.347656 -3.890625 2.109375 -3.890625 L 1.671875 -3.890625 L 1.671875 -2.3125 L 1.859375 -2.3125 C 2.097656 -2.3125 2.257812 -2.34375 2.34375 -2.40625 C 2.425781 -2.476562 2.46875 -2.609375 2.46875 -2.796875 C 2.53125 -2.816406 2.597656 -2.832031 2.671875 -2.84375 C 2.742188 -2.851562 2.820312 -2.859375 2.90625 -2.859375 C 2.894531 -2.753906 2.890625 -2.640625 2.890625 -2.515625 C 2.890625 -2.398438 2.890625 -2.273438 2.890625 -2.140625 C 2.890625 -1.992188 2.890625 -1.859375 2.890625 -1.734375 C 2.890625 -1.617188 2.894531 -1.507812 2.90625 -1.40625 C 2.8125 -1.40625 2.734375 -1.40625 2.671875 -1.40625 C 2.609375 -1.414062 2.546875 -1.429688 2.484375 -1.453125 C 2.460938 -1.648438 2.410156 -1.78125 2.328125 -1.84375 C 2.242188 -1.914062 2.085938 -1.953125 1.859375 -1.953125 L 1.671875 -1.953125 L 1.671875 -1.046875 C 1.671875 -0.867188 1.6875 -0.734375 1.71875 -0.640625 C 1.75 -0.546875 1.800781 -0.476562 1.875 -0.4375 C 1.957031 -0.40625 2.066406 -0.390625 2.203125 -0.390625 L 2.28125 -0.390625 C 2.5 -0.390625 2.671875 -0.414062 2.796875 -0.46875 C 2.921875 -0.53125 3.019531 -0.617188 3.09375 -0.734375 C 3.164062 -0.859375 3.234375 -1.015625 3.296875 -1.203125 C 3.390625 -1.191406 3.476562 -1.171875 3.5625 -1.140625 C 3.644531 -1.109375 3.710938 -1.070312 3.765625 -1.03125 C 3.710938 -0.882812 3.671875 -0.71875 3.640625 -0.53125 C 3.609375 -0.34375 3.582031 -0.160156 3.5625 0.015625 C 3.457031 0.00390625 3.320312 0 3.15625 0 C 3 0 2.820312 0 2.625 0 C 2.4375 0 2.25 0 2.0625 0 C 1.945312 0 1.800781 0 1.625 0 C 1.457031 0 1.285156 0 1.109375 0 C 0.929688 0.0078125 0.765625 0.015625 0.609375 0.015625 C 0.453125 0.015625 0.335938 0.015625 0.265625 0.015625 C 0.265625 -0.0546875 0.265625 -0.125 0.265625 -0.1875 C 0.273438 -0.257812 0.289062 -0.316406 0.3125 -0.359375 C 0.425781 -0.367188 0.507812 -0.390625 0.5625 -0.421875 C 0.625 -0.460938 0.664062 -0.53125 0.6875 -0.625 C 0.71875 -0.71875 0.734375 -0.851562 0.734375 -1.03125 L 0.734375 -3.265625 C 0.734375 -3.429688 0.71875 -3.554688 0.6875 -3.640625 C 0.664062 -3.722656 0.625 -3.78125 0.5625 -3.8125 C 0.507812 -3.851562 0.421875 -3.878906 0.296875 -3.890625 C 0.285156 -3.929688 0.273438 -3.988281 0.265625 -4.0625 C 0.265625 -4.144531 0.265625 -4.21875 0.265625 -4.28125 C 0.347656 -4.269531 0.445312 -4.265625 0.5625 -4.265625 C 0.6875 -4.265625 0.816406 -4.257812 0.953125 -4.25 C 1.097656 -4.25 1.234375 -4.25 1.359375 -4.25 Z M 1.640625 -4.25 "/></g></g></g><g fill="#ffffff" fill-opacity="1"><g transform="translate(129.363754, 50.541611)"><g><path d="M 2.46875 -1.15625 C 2.550781 -1.351562 2.632812 -1.546875 2.71875 -1.734375 C 2.8125 -1.984375 2.90625 -2.234375 3 -2.484375 C 3.101562 -2.734375 3.203125 -3 3.296875 -3.28125 C 3.359375 -3.445312 3.375 -3.582031 3.34375 -3.6875 C 3.3125 -3.800781 3.21875 -3.867188 3.0625 -3.890625 C 3.039062 -3.941406 3.023438 -4 3.015625 -4.0625 C 3.015625 -4.125 3.015625 -4.195312 3.015625 -4.28125 C 3.078125 -4.269531 3.140625 -4.265625 3.203125 -4.265625 C 3.273438 -4.265625 3.347656 -4.257812 3.421875 -4.25 C 3.503906 -4.25 3.578125 -4.25 3.640625 -4.25 C 3.742188 -4.25 3.851562 -4.25 3.96875 -4.25 C 4.09375 -4.257812 4.195312 -4.269531 4.28125 -4.28125 C 4.28125 -4.207031 4.273438 -4.132812 4.265625 -4.0625 C 4.265625 -4 4.253906 -3.941406 4.234375 -3.890625 C 4.117188 -3.867188 4.019531 -3.800781 3.9375 -3.6875 C 3.863281 -3.582031 3.785156 -3.421875 3.703125 -3.203125 C 3.492188 -2.671875 3.28125 -2.140625 3.0625 -1.609375 C 2.851562 -1.078125 2.628906 -0.539062 2.390625 0 C 2.335938 0.0195312 2.273438 0.03125 2.203125 0.03125 C 2.128906 0.0390625 2.054688 0.046875 1.984375 0.046875 C 1.835938 -0.335938 1.691406 -0.710938 1.546875 -1.078125 C 1.398438 -1.453125 1.253906 -1.8125 1.109375 -2.15625 C 0.960938 -2.507812 0.820312 -2.84375 0.6875 -3.15625 C 0.59375 -3.351562 0.519531 -3.503906 0.46875 -3.609375 C 0.414062 -3.710938 0.363281 -3.78125 0.3125 -3.8125 C 0.269531 -3.851562 0.21875 -3.878906 0.15625 -3.890625 C 0.132812 -3.941406 0.117188 -4 0.109375 -4.0625 C 0.109375 -4.132812 0.109375 -4.207031 0.109375 -4.28125 C 0.160156 -4.269531 0.222656 -4.265625 0.296875 -4.265625 C 0.367188 -4.265625 0.445312 -4.257812 0.53125 -4.25 C 0.625 -4.25 0.710938 -4.25 0.796875 -4.25 C 0.878906 -4.25 0.953125 -4.25 1.015625 -4.25 C 1.128906 -4.25 1.269531 -4.25 1.4375 -4.25 C 1.601562 -4.257812 1.769531 -4.269531 1.9375 -4.28125 C 1.925781 -4.195312 1.914062 -4.117188 1.90625 -4.046875 C 1.90625 -3.984375 1.898438 -3.929688 1.890625 -3.890625 C 1.765625 -3.878906 1.675781 -3.851562 1.625 -3.8125 C 1.570312 -3.769531 1.550781 -3.703125 1.5625 -3.609375 C 1.582031 -3.523438 1.625 -3.398438 1.6875 -3.234375 C 1.789062 -2.984375 1.890625 -2.738281 1.984375 -2.5 C 2.078125 -2.257812 2.171875 -2.015625 2.265625 -1.765625 C 2.328125 -1.578125 2.394531 -1.375 2.46875 -1.15625 Z M 2.46875 -1.15625 "/></g></g></g><g fill="#ffffff" fill-opacity="1"><g transform="translate(133.74864, 50.541611)"><g><path d="M 1.640625 -4.25 C 1.960938 -4.25 2.234375 -4.25 2.453125 -4.25 C 2.679688 -4.257812 2.867188 -4.265625 3.015625 -4.265625 C 3.171875 -4.265625 3.296875 -4.269531 3.390625 -4.28125 C 3.398438 -4.175781 3.410156 -4.054688 3.421875 -3.921875 C 3.429688 -3.796875 3.445312 -3.671875 3.46875 -3.546875 C 3.488281 -3.421875 3.507812 -3.3125 3.53125 -3.21875 C 3.46875 -3.1875 3.398438 -3.160156 3.328125 -3.140625 C 3.253906 -3.128906 3.164062 -3.125 3.0625 -3.125 C 3.039062 -3.257812 3 -3.382812 2.9375 -3.5 C 2.882812 -3.613281 2.789062 -3.707031 2.65625 -3.78125 C 2.53125 -3.851562 2.347656 -3.890625 2.109375 -3.890625 L 1.671875 -3.890625 L 1.671875 -2.3125 L 1.859375 -2.3125 C 2.097656 -2.3125 2.257812 -2.34375 2.34375 -2.40625 C 2.425781 -2.476562 2.46875 -2.609375 2.46875 -2.796875 C 2.53125 -2.816406 2.597656 -2.832031 2.671875 -2.84375 C 2.742188 -2.851562 2.820312 -2.859375 2.90625 -2.859375 C 2.894531 -2.753906 2.890625 -2.640625 2.890625 -2.515625 C 2.890625 -2.398438 2.890625 -2.273438 2.890625 -2.140625 C 2.890625 -1.992188 2.890625 -1.859375 2.890625 -1.734375 C 2.890625 -1.617188 2.894531 -1.507812 2.90625 -1.40625 C 2.8125 -1.40625 2.734375 -1.40625 2.671875 -1.40625 C 2.609375 -1.414062 2.546875 -1.429688 2.484375 -1.453125 C 2.460938 -1.648438 2.410156 -1.78125 2.328125 -1.84375 C 2.242188 -1.914062 2.085938 -1.953125 1.859375 -1.953125 L 1.671875 -1.953125 L 1.671875 -1.046875 C 1.671875 -0.867188 1.6875 -0.734375 1.71875 -0.640625 C 1.75 -0.546875 1.800781 -0.476562 1.875 -0.4375 C 1.957031 -0.40625 2.066406 -0.390625 2.203125 -0.390625 L 2.28125 -0.390625 C 2.5 -0.390625 2.671875 -0.414062 2.796875 -0.46875 C 2.921875 -0.53125 3.019531 -0.617188 3.09375 -0.734375 C 3.164062 -0.859375 3.234375 -1.015625 3.296875 -1.203125 C 3.390625 -1.191406 3.476562 -1.171875 3.5625 -1.140625 C 3.644531 -1.109375 3.710938 -1.070312 3.765625 -1.03125 C 3.710938 -0.882812 3.671875 -0.71875 3.640625 -0.53125 C 3.609375 -0.34375 3.582031 -0.160156 3.5625 0.015625 C 3.457031 0.00390625 3.320312 0 3.15625 0 C 3 0 2.820312 0 2.625 0 C 2.4375 0 2.25 0 2.0625 0 C 1.945312 0 1.800781 0 1.625 0 C 1.457031 0 1.285156 0 1.109375 0 C 0.929688 0.0078125 0.765625 0.015625 0.609375 0.015625 C 0.453125 0.015625 0.335938 0.015625 0.265625 0.015625 C 0.265625 -0.0546875 0.265625 -0.125 0.265625 -0.1875 C 0.273438 -0.257812 0.289062 -0.316406 0.3125 -0.359375 C 0.425781 -0.367188 0.507812 -0.390625 0.5625 -0.421875 C 0.625 -0.460938 0.664062 -0.53125 0.6875 -0.625 C 0.71875 -0.71875 0.734375 -0.851562 0.734375 -1.03125 L 0.734375 -3.265625 C 0.734375 -3.429688 0.71875 -3.554688 0.6875 -3.640625 C 0.664062 -3.722656 0.625 -3.78125 0.5625 -3.8125 C 0.507812 -3.851562 0.421875 -3.878906 0.296875 -3.890625 C 0.285156 -3.929688 0.273438 -3.988281 0.265625 -4.0625 C 0.265625 -4.144531 0.265625 -4.21875 0.265625 -4.28125 C 0.347656 -4.269531 0.445312 -4.265625 0.5625 -4.265625 C 0.6875 -4.265625 0.816406 -4.257812 0.953125 -4.25 C 1.097656 -4.25 1.234375 -4.25 1.359375 -4.25 Z M 1.640625 -4.25 "/></g></g></g><g fill="#ffffff" fill-opacity="1"><g transform="translate(137.675678, 50.541611)"><g><path d="M 2.28125 -0.390625 C 2.46875 -0.390625 2.617188 -0.414062 2.734375 -0.46875 C 2.847656 -0.519531 2.941406 -0.601562 3.015625 -0.71875 C 3.097656 -0.84375 3.171875 -1.003906 3.234375 -1.203125 C 3.335938 -1.191406 3.425781 -1.171875 3.5 -1.140625 C 3.582031 -1.109375 3.648438 -1.070312 3.703125 -1.03125 C 3.660156 -0.882812 3.617188 -0.71875 3.578125 -0.53125 C 3.546875 -0.34375 3.523438 -0.160156 3.515625 0.015625 C 3.398438 0.00390625 3.257812 0 3.09375 0 C 2.9375 0 2.765625 0 2.578125 0 C 2.398438 0 2.226562 0 2.0625 0 C 1.945312 0 1.800781 0 1.625 0 C 1.457031 0 1.285156 0 1.109375 0 C 0.929688 0.0078125 0.765625 0.015625 0.609375 0.015625 C 0.453125 0.015625 0.335938 0.015625 0.265625 0.015625 C 0.265625 -0.0546875 0.265625 -0.125 0.265625 -0.1875 C 0.273438 -0.257812 0.289062 -0.316406 0.3125 -0.359375 C 0.425781 -0.367188 0.507812 -0.390625 0.5625 -0.421875 C 0.625 -0.460938 0.664062 -0.53125 0.6875 -0.625 C 0.71875 -0.71875 0.734375 -0.851562 0.734375 -1.03125 L 0.734375 -3.265625 C 0.734375 -3.429688 0.722656 -3.554688 0.703125 -3.640625 C 0.679688 -3.722656 0.640625 -3.78125 0.578125 -3.8125 C 0.515625 -3.851562 0.425781 -3.878906 0.3125 -3.890625 C 0.289062 -3.929688 0.273438 -3.988281 0.265625 -4.0625 C 0.265625 -4.144531 0.265625 -4.21875 0.265625 -4.28125 C 0.378906 -4.269531 0.484375 -4.265625 0.578125 -4.265625 C 0.679688 -4.265625 0.785156 -4.257812 0.890625 -4.25 C 0.992188 -4.25 1.097656 -4.25 1.203125 -4.25 C 1.304688 -4.25 1.410156 -4.25 1.515625 -4.25 C 1.628906 -4.257812 1.738281 -4.265625 1.84375 -4.265625 C 1.957031 -4.265625 2.054688 -4.269531 2.140625 -4.28125 C 2.140625 -4.207031 2.132812 -4.132812 2.125 -4.0625 C 2.125 -4 2.113281 -3.941406 2.09375 -3.890625 C 1.988281 -3.878906 1.90625 -3.851562 1.84375 -3.8125 C 1.78125 -3.78125 1.734375 -3.722656 1.703125 -3.640625 C 1.679688 -3.554688 1.671875 -3.425781 1.671875 -3.25 L 1.671875 -1.046875 C 1.671875 -0.867188 1.6875 -0.734375 1.71875 -0.640625 C 1.75 -0.546875 1.800781 -0.476562 1.875 -0.4375 C 1.957031 -0.40625 2.066406 -0.390625 2.203125 -0.390625 Z M 2.28125 -0.390625 "/></g></g></g><g fill="#ffffff" fill-opacity="1"><g transform="translate(141.464441, 50.541611)"><g><path d="M 2.453125 -0.34375 C 2.671875 -0.34375 2.859375 -0.414062 3.015625 -0.5625 C 3.171875 -0.707031 3.289062 -0.90625 3.375 -1.15625 C 3.457031 -1.414062 3.5 -1.710938 3.5 -2.046875 C 3.5 -2.390625 3.445312 -2.703125 3.34375 -2.984375 C 3.238281 -3.273438 3.085938 -3.503906 2.890625 -3.671875 C 2.703125 -3.835938 2.484375 -3.921875 2.234375 -3.921875 C 2.035156 -3.921875 1.859375 -3.851562 1.703125 -3.71875 C 1.546875 -3.59375 1.421875 -3.410156 1.328125 -3.171875 C 1.242188 -2.929688 1.203125 -2.644531 1.203125 -2.3125 C 1.203125 -2.050781 1.226562 -1.800781 1.28125 -1.5625 C 1.332031 -1.320312 1.410156 -1.109375 1.515625 -0.921875 C 1.617188 -0.742188 1.75 -0.601562 1.90625 -0.5 C 2.0625 -0.394531 2.242188 -0.34375 2.453125 -0.34375 Z M 2.34375 0.0625 C 1.90625 0.0625 1.53125 -0.03125 1.21875 -0.21875 C 0.90625 -0.414062 0.660156 -0.675781 0.484375 -1 C 0.304688 -1.332031 0.21875 -1.710938 0.21875 -2.140625 C 0.21875 -2.472656 0.269531 -2.769531 0.375 -3.03125 C 0.488281 -3.300781 0.640625 -3.53125 0.828125 -3.71875 C 1.015625 -3.914062 1.238281 -4.0625 1.5 -4.15625 C 1.757812 -4.257812 2.039062 -4.3125 2.34375 -4.3125 C 2.769531 -4.3125 3.140625 -4.222656 3.453125 -4.046875 C 3.773438 -3.867188 4.023438 -3.617188 4.203125 -3.296875 C 4.390625 -2.984375 4.484375 -2.613281 4.484375 -2.1875 C 4.484375 -1.863281 4.429688 -1.5625 4.328125 -1.28125 C 4.234375 -1.007812 4.085938 -0.773438 3.890625 -0.578125 C 3.703125 -0.378906 3.476562 -0.222656 3.21875 -0.109375 C 2.957031 0.00390625 2.664062 0.0625 2.34375 0.0625 Z M 2.34375 0.0625 "/></g></g></g><g fill="#ffffff" fill-opacity="1"><g transform="translate(146.165825, 50.541611)"><g><path d="M 1.671875 -3.84375 L 1.671875 -1.09375 C 1.671875 -0.90625 1.691406 -0.757812 1.734375 -0.65625 C 1.773438 -0.5625 1.835938 -0.492188 1.921875 -0.453125 C 2.015625 -0.410156 2.140625 -0.378906 2.296875 -0.359375 C 2.316406 -0.304688 2.328125 -0.25 2.328125 -0.1875 C 2.335938 -0.125 2.34375 -0.0546875 2.34375 0.015625 C 2.269531 0.015625 2.175781 0.0078125 2.0625 0 C 1.957031 0 1.835938 0 1.703125 0 C 1.578125 0 1.453125 0 1.328125 0 C 1.210938 0 1.085938 0 0.953125 0 C 0.816406 0 0.6875 0 0.5625 0 C 0.445312 0.0078125 0.347656 0.015625 0.265625 0.015625 C 0.265625 -0.0664062 0.265625 -0.140625 0.265625 -0.203125 C 0.273438 -0.265625 0.285156 -0.316406 0.296875 -0.359375 C 0.410156 -0.367188 0.5 -0.390625 0.5625 -0.421875 C 0.625 -0.460938 0.664062 -0.523438 0.6875 -0.609375 C 0.71875 -0.703125 0.734375 -0.832031 0.734375 -1 L 0.734375 -3.265625 C 0.734375 -3.429688 0.722656 -3.554688 0.703125 -3.640625 C 0.679688 -3.722656 0.640625 -3.78125 0.578125 -3.8125 C 0.515625 -3.851562 0.425781 -3.878906 0.3125 -3.890625 C 0.289062 -3.929688 0.273438 -3.984375 0.265625 -4.046875 C 0.265625 -4.117188 0.265625 -4.195312 0.265625 -4.28125 C 0.453125 -4.269531 0.625 -4.257812 0.78125 -4.25 C 0.945312 -4.25 1.09375 -4.25 1.21875 -4.25 C 1.3125 -4.25 1.425781 -4.25 1.5625 -4.25 C 1.707031 -4.257812 1.84375 -4.265625 1.96875 -4.265625 C 2.09375 -4.265625 2.179688 -4.265625 2.234375 -4.265625 C 2.640625 -4.265625 2.953125 -4.207031 3.171875 -4.09375 C 3.398438 -3.976562 3.5625 -3.828125 3.65625 -3.640625 C 3.75 -3.453125 3.796875 -3.238281 3.796875 -3 C 3.796875 -2.71875 3.738281 -2.457031 3.625 -2.21875 C 3.507812 -1.988281 3.335938 -1.804688 3.109375 -1.671875 C 2.890625 -1.535156 2.617188 -1.46875 2.296875 -1.46875 C 2.117188 -1.46875 1.972656 -1.488281 1.859375 -1.53125 C 1.847656 -1.601562 1.84375 -1.664062 1.84375 -1.71875 C 1.851562 -1.78125 1.867188 -1.835938 1.890625 -1.890625 C 1.929688 -1.878906 1.96875 -1.875 2 -1.875 C 2.039062 -1.875 2.082031 -1.875 2.125 -1.875 C 2.25 -1.875 2.363281 -1.898438 2.46875 -1.953125 C 2.570312 -2.015625 2.65625 -2.113281 2.71875 -2.25 C 2.789062 -2.382812 2.828125 -2.570312 2.828125 -2.8125 C 2.828125 -3.125 2.753906 -3.378906 2.609375 -3.578125 C 2.472656 -3.773438 2.253906 -3.875 1.953125 -3.875 C 1.898438 -3.875 1.847656 -3.875 1.796875 -3.875 C 1.765625 -3.863281 1.722656 -3.851562 1.671875 -3.84375 Z M 1.671875 -3.84375 "/></g></g></g><g fill="#ffffff" fill-opacity="1"><g transform="translate(150.18812, 50.541611)"><g><path d="M 4.28125 -3.0625 L 3.046875 0 C 3.003906 0.0195312 2.945312 0.0351562 2.875 0.046875 C 2.800781 0.0546875 2.734375 0.0625 2.671875 0.0625 L 1.28125 -3.046875 L 1.109375 -1.34375 C 1.078125 -1.082031 1.070312 -0.882812 1.09375 -0.75 C 1.113281 -0.613281 1.15625 -0.519531 1.21875 -0.46875 C 1.289062 -0.414062 1.382812 -0.378906 1.5 -0.359375 C 1.519531 -0.304688 1.53125 -0.242188 1.53125 -0.171875 C 1.53125 -0.109375 1.53125 -0.046875 1.53125 0.015625 C 1.457031 0.00390625 1.351562 0 1.21875 0 C 1.09375 0 0.972656 0 0.859375 0 C 0.785156 0 0.703125 0 0.609375 0 C 0.515625 0 0.425781 0 0.34375 0 C 0.257812 0.0078125 0.191406 0.015625 0.140625 0.015625 C 0.140625 -0.046875 0.140625 -0.109375 0.140625 -0.171875 C 0.148438 -0.242188 0.164062 -0.304688 0.1875 -0.359375 C 0.289062 -0.378906 0.375 -0.414062 0.4375 -0.46875 C 0.507812 -0.519531 0.566406 -0.613281 0.609375 -0.75 C 0.648438 -0.882812 0.679688 -1.085938 0.703125 -1.359375 L 0.875 -3.21875 C 0.894531 -3.40625 0.894531 -3.546875 0.875 -3.640625 C 0.851562 -3.734375 0.8125 -3.796875 0.75 -3.828125 C 0.6875 -3.867188 0.59375 -3.890625 0.46875 -3.890625 C 0.445312 -3.953125 0.429688 -4.015625 0.421875 -4.078125 C 0.421875 -4.140625 0.421875 -4.207031 0.421875 -4.28125 C 0.484375 -4.269531 0.554688 -4.265625 0.640625 -4.265625 C 0.722656 -4.265625 0.804688 -4.257812 0.890625 -4.25 C 0.984375 -4.25 1.054688 -4.25 1.109375 -4.25 C 1.171875 -4.25 1.242188 -4.25 1.328125 -4.25 C 1.421875 -4.257812 1.507812 -4.265625 1.59375 -4.265625 C 1.675781 -4.265625 1.742188 -4.269531 1.796875 -4.28125 L 3.140625 -1.1875 L 4.3125 -4.28125 C 4.375 -4.269531 4.445312 -4.265625 4.53125 -4.265625 C 4.625 -4.265625 4.710938 -4.257812 4.796875 -4.25 C 4.878906 -4.25 4.953125 -4.25 5.015625 -4.25 C 5.078125 -4.25 5.148438 -4.25 5.234375 -4.25 C 5.316406 -4.257812 5.398438 -4.265625 5.484375 -4.265625 C 5.566406 -4.265625 5.632812 -4.269531 5.6875 -4.28125 C 5.6875 -4.207031 5.679688 -4.132812 5.671875 -4.0625 C 5.671875 -4 5.660156 -3.941406 5.640625 -3.890625 C 5.472656 -3.890625 5.359375 -3.84375 5.296875 -3.75 C 5.234375 -3.65625 5.210938 -3.472656 5.234375 -3.203125 L 5.4375 -1.203125 C 5.457031 -0.972656 5.484375 -0.800781 5.515625 -0.6875 C 5.546875 -0.570312 5.59375 -0.492188 5.65625 -0.453125 C 5.71875 -0.410156 5.800781 -0.382812 5.90625 -0.375 C 5.925781 -0.3125 5.9375 -0.25 5.9375 -0.1875 C 5.9375 -0.125 5.9375 -0.0546875 5.9375 0.015625 C 5.894531 0.015625 5.832031 0.0078125 5.75 0 C 5.664062 0 5.570312 0 5.46875 0 C 5.375 0 5.28125 0 5.1875 0 C 5.09375 0 5.007812 0 4.9375 0 C 4.851562 0 4.753906 0 4.640625 0 C 4.523438 0 4.414062 0 4.3125 0 C 4.207031 0.0078125 4.125 0.015625 4.0625 0.015625 C 4.0625 -0.0546875 4.066406 -0.125 4.078125 -0.1875 C 4.085938 -0.25 4.097656 -0.304688 4.109375 -0.359375 C 4.242188 -0.378906 4.34375 -0.410156 4.40625 -0.453125 C 4.46875 -0.492188 4.5 -0.5625 4.5 -0.65625 C 4.507812 -0.757812 4.503906 -0.914062 4.484375 -1.125 Z M 4.28125 -3.0625 "/></g></g></g><g fill="#ffffff" fill-opacity="1"><g transform="translate(156.266119, 50.541611)"><g><path d="M 1.640625 -4.25 C 1.960938 -4.25 2.234375 -4.25 2.453125 -4.25 C 2.679688 -4.257812 2.867188 -4.265625 3.015625 -4.265625 C 3.171875 -4.265625 3.296875 -4.269531 3.390625 -4.28125 C 3.398438 -4.175781 3.410156 -4.054688 3.421875 -3.921875 C 3.429688 -3.796875 3.445312 -3.671875 3.46875 -3.546875 C 3.488281 -3.421875 3.507812 -3.3125 3.53125 -3.21875 C 3.46875 -3.1875 3.398438 -3.160156 3.328125 -3.140625 C 3.253906 -3.128906 3.164062 -3.125 3.0625 -3.125 C 3.039062 -3.257812 3 -3.382812 2.9375 -3.5 C 2.882812 -3.613281 2.789062 -3.707031 2.65625 -3.78125 C 2.53125 -3.851562 2.347656 -3.890625 2.109375 -3.890625 L 1.671875 -3.890625 L 1.671875 -2.3125 L 1.859375 -2.3125 C 2.097656 -2.3125 2.257812 -2.34375 2.34375 -2.40625 C 2.425781 -2.476562 2.46875 -2.609375 2.46875 -2.796875 C 2.53125 -2.816406 2.597656 -2.832031 2.671875 -2.84375 C 2.742188 -2.851562 2.820312 -2.859375 2.90625 -2.859375 C 2.894531 -2.753906 2.890625 -2.640625 2.890625 -2.515625 C 2.890625 -2.398438 2.890625 -2.273438 2.890625 -2.140625 C 2.890625 -1.992188 2.890625 -1.859375 2.890625 -1.734375 C 2.890625 -1.617188 2.894531 -1.507812 2.90625 -1.40625 C 2.8125 -1.40625 2.734375 -1.40625 2.671875 -1.40625 C 2.609375 -1.414062 2.546875 -1.429688 2.484375 -1.453125 C 2.460938 -1.648438 2.410156 -1.78125 2.328125 -1.84375 C 2.242188 -1.914062 2.085938 -1.953125 1.859375 -1.953125 L 1.671875 -1.953125 L 1.671875 -1.046875 C 1.671875 -0.867188 1.6875 -0.734375 1.71875 -0.640625 C 1.75 -0.546875 1.800781 -0.476562 1.875 -0.4375 C 1.957031 -0.40625 2.066406 -0.390625 2.203125 -0.390625 L 2.28125 -0.390625 C 2.5 -0.390625 2.671875 -0.414062 2.796875 -0.46875 C 2.921875 -0.53125 3.019531 -0.617188 3.09375 -0.734375 C 3.164062 -0.859375 3.234375 -1.015625 3.296875 -1.203125 C 3.390625 -1.191406 3.476562 -1.171875 3.5625 -1.140625 C 3.644531 -1.109375 3.710938 -1.070312 3.765625 -1.03125 C 3.710938 -0.882812 3.671875 -0.71875 3.640625 -0.53125 C 3.609375 -0.34375 3.582031 -0.160156 3.5625 0.015625 C 3.457031 0.00390625 3.320312 0 3.15625 0 C 3 0 2.820312 0 2.625 0 C 2.4375 0 2.25 0 2.0625 0 C 1.945312 0 1.800781 0 1.625 0 C 1.457031 0 1.285156 0 1.109375 0 C 0.929688 0.0078125 0.765625 0.015625 0.609375 0.015625 C 0.453125 0.015625 0.335938 0.015625 0.265625 0.015625 C 0.265625 -0.0546875 0.265625 -0.125 0.265625 -0.1875 C 0.273438 -0.257812 0.289062 -0.316406 0.3125 -0.359375 C 0.425781 -0.367188 0.507812 -0.390625 0.5625 -0.421875 C 0.625 -0.460938 0.664062 -0.53125 0.6875 -0.625 C 0.71875 -0.71875 0.734375 -0.851562 0.734375 -1.03125 L 0.734375 -3.265625 C 0.734375 -3.429688 0.71875 -3.554688 0.6875 -3.640625 C 0.664062 -3.722656 0.625 -3.78125 0.5625 -3.8125 C 0.507812 -3.851562 0.421875 -3.878906 0.296875 -3.890625 C 0.285156 -3.929688 0.273438 -3.988281 0.265625 -4.0625 C 0.265625 -4.144531 0.265625 -4.21875 0.265625 -4.28125 C 0.347656 -4.269531 0.445312 -4.265625 0.5625 -4.265625 C 0.6875 -4.265625 0.816406 -4.257812 0.953125 -4.25 C 1.097656 -4.25 1.234375 -4.25 1.359375 -4.25 Z M 1.640625 -4.25 "/></g></g></g><g fill="#ffffff" fill-opacity="1"><g transform="translate(160.193157, 50.541611)"><g><path d="M 3.53125 -1.484375 L 3.53125 -2.984375 C 3.53125 -3.222656 3.515625 -3.40625 3.484375 -3.53125 C 3.460938 -3.65625 3.414062 -3.742188 3.34375 -3.796875 C 3.269531 -3.847656 3.171875 -3.878906 3.046875 -3.890625 C 3.023438 -3.960938 3.007812 -4.03125 3 -4.09375 C 3 -4.15625 3 -4.21875 3 -4.28125 C 3.0625 -4.269531 3.132812 -4.265625 3.21875 -4.265625 C 3.300781 -4.265625 3.382812 -4.257812 3.46875 -4.25 C 3.5625 -4.25 3.644531 -4.25 3.71875 -4.25 C 3.8125 -4.25 3.921875 -4.25 4.046875 -4.25 C 4.171875 -4.257812 4.269531 -4.269531 4.34375 -4.28125 C 4.34375 -4.21875 4.34375 -4.148438 4.34375 -4.078125 C 4.34375 -4.015625 4.332031 -3.953125 4.3125 -3.890625 C 4.207031 -3.878906 4.128906 -3.847656 4.078125 -3.796875 C 4.023438 -3.742188 3.984375 -3.65625 3.953125 -3.53125 C 3.929688 -3.40625 3.921875 -3.222656 3.921875 -2.984375 L 3.921875 0 C 3.867188 0.0195312 3.804688 0.03125 3.734375 0.03125 C 3.660156 0.0390625 3.582031 0.046875 3.5 0.046875 L 1.140625 -3.09375 L 1.140625 -1.28125 C 1.140625 -1.039062 1.148438 -0.851562 1.171875 -0.71875 C 1.203125 -0.59375 1.25 -0.503906 1.3125 -0.453125 C 1.382812 -0.398438 1.484375 -0.367188 1.609375 -0.359375 C 1.617188 -0.304688 1.625 -0.25 1.625 -0.1875 C 1.632812 -0.125 1.640625 -0.0546875 1.640625 0.015625 C 1.578125 0.015625 1.503906 0.0078125 1.421875 0 C 1.335938 0 1.253906 0 1.171875 0 C 1.085938 0 1.015625 0 0.953125 0 C 0.878906 0 0.796875 0 0.703125 0 C 0.609375 0 0.515625 0 0.421875 0 C 0.335938 0.0078125 0.269531 0.015625 0.21875 0.015625 C 0.21875 -0.0546875 0.21875 -0.125 0.21875 -0.1875 C 0.226562 -0.25 0.242188 -0.304688 0.265625 -0.359375 C 0.378906 -0.367188 0.472656 -0.398438 0.546875 -0.453125 C 0.617188 -0.503906 0.664062 -0.59375 0.6875 -0.71875 C 0.71875 -0.851562 0.734375 -1.039062 0.734375 -1.28125 L 0.734375 -3.625 L 0.671875 -3.703125 C 0.628906 -3.765625 0.578125 -3.804688 0.515625 -3.828125 C 0.460938 -3.859375 0.378906 -3.878906 0.265625 -3.890625 C 0.242188 -3.953125 0.226562 -4.015625 0.21875 -4.078125 C 0.21875 -4.148438 0.21875 -4.21875 0.21875 -4.28125 C 0.269531 -4.269531 0.332031 -4.265625 0.40625 -4.265625 C 0.488281 -4.265625 0.570312 -4.257812 0.65625 -4.25 C 0.738281 -4.25 0.8125 -4.25 0.875 -4.25 C 0.96875 -4.25 1.066406 -4.25 1.171875 -4.25 C 1.285156 -4.257812 1.378906 -4.269531 1.453125 -4.28125 Z M 3.53125 -1.484375 "/></g></g></g><g fill="#ffffff" fill-opacity="1"><g transform="translate(164.762411, 50.541611)"><g><path d="M 2.53125 -3.875 L 2.53125 -1 C 2.53125 -0.832031 2.546875 -0.703125 2.578125 -0.609375 C 2.609375 -0.523438 2.660156 -0.460938 2.734375 -0.421875 C 2.816406 -0.390625 2.9375 -0.367188 3.09375 -0.359375 C 3.113281 -0.316406 3.125 -0.257812 3.125 -0.1875 C 3.132812 -0.125 3.140625 -0.0546875 3.140625 0.015625 C 3.015625 0.00390625 2.859375 0 2.671875 0 C 2.492188 0 2.304688 0 2.109375 0 C 1.972656 0 1.828125 0 1.671875 0 C 1.523438 0 1.390625 0 1.265625 0 C 1.140625 0.0078125 1.035156 0.015625 0.953125 0.015625 C 0.953125 -0.046875 0.957031 -0.113281 0.96875 -0.1875 C 0.976562 -0.257812 0.988281 -0.316406 1 -0.359375 C 1.15625 -0.367188 1.273438 -0.390625 1.359375 -0.421875 C 1.453125 -0.460938 1.515625 -0.523438 1.546875 -0.609375 C 1.578125 -0.703125 1.59375 -0.832031 1.59375 -1 L 1.59375 -3.875 L 1.4375 -3.875 C 1.257812 -3.875 1.117188 -3.84375 1.015625 -3.78125 C 0.910156 -3.71875 0.832031 -3.628906 0.78125 -3.515625 C 0.726562 -3.398438 0.679688 -3.257812 0.640625 -3.09375 C 0.554688 -3.09375 0.46875 -3.097656 0.375 -3.109375 C 0.289062 -3.117188 0.21875 -3.140625 0.15625 -3.171875 C 0.195312 -3.335938 0.226562 -3.519531 0.25 -3.71875 C 0.269531 -3.925781 0.28125 -4.113281 0.28125 -4.28125 C 0.4375 -4.269531 0.597656 -4.257812 0.765625 -4.25 C 0.941406 -4.25 1.132812 -4.25 1.34375 -4.25 C 1.550781 -4.25 1.796875 -4.25 2.078125 -4.25 C 2.335938 -4.25 2.578125 -4.25 2.796875 -4.25 C 3.015625 -4.257812 3.210938 -4.265625 3.390625 -4.265625 C 3.566406 -4.265625 3.722656 -4.269531 3.859375 -4.28125 C 3.859375 -4.113281 3.867188 -3.9375 3.890625 -3.75 C 3.910156 -3.5625 3.929688 -3.367188 3.953125 -3.171875 C 3.890625 -3.140625 3.816406 -3.117188 3.734375 -3.109375 C 3.660156 -3.097656 3.570312 -3.09375 3.46875 -3.09375 C 3.4375 -3.351562 3.367188 -3.546875 3.265625 -3.671875 C 3.160156 -3.804688 2.992188 -3.875 2.765625 -3.875 Z M 2.53125 -3.875 "/></g></g></g><g fill="#ffffff" fill-opacity="1"><g transform="translate(168.883036, 50.541611)"><g/></g></g><g fill="#ffffff" fill-opacity="1"><g transform="translate(170.345689, 50.541611)"><g><path d="M 2.3125 0.0625 C 1.894531 0.0625 1.53125 -0.03125 1.21875 -0.21875 C 0.90625 -0.40625 0.660156 -0.664062 0.484375 -1 C 0.304688 -1.332031 0.21875 -1.71875 0.21875 -2.15625 C 0.21875 -2.507812 0.273438 -2.820312 0.390625 -3.09375 C 0.515625 -3.363281 0.675781 -3.585938 0.875 -3.765625 C 1.070312 -3.953125 1.300781 -4.085938 1.5625 -4.171875 C 1.820312 -4.265625 2.085938 -4.3125 2.359375 -4.3125 C 2.609375 -4.3125 2.84375 -4.28125 3.0625 -4.21875 C 3.289062 -4.164062 3.519531 -4.085938 3.75 -3.984375 C 3.726562 -3.835938 3.707031 -3.679688 3.6875 -3.515625 C 3.675781 -3.347656 3.671875 -3.179688 3.671875 -3.015625 C 3.617188 -2.984375 3.546875 -2.960938 3.453125 -2.953125 C 3.367188 -2.941406 3.28125 -2.9375 3.1875 -2.9375 C 3.1875 -3.1875 3.148438 -3.382812 3.078125 -3.53125 C 3.015625 -3.6875 2.921875 -3.789062 2.796875 -3.84375 C 2.679688 -3.90625 2.546875 -3.9375 2.390625 -3.9375 C 2.179688 -3.9375 2 -3.890625 1.84375 -3.796875 C 1.695312 -3.710938 1.578125 -3.59375 1.484375 -3.4375 C 1.390625 -3.28125 1.320312 -3.101562 1.28125 -2.90625 C 1.238281 -2.71875 1.21875 -2.519531 1.21875 -2.3125 C 1.21875 -1.96875 1.269531 -1.648438 1.375 -1.359375 C 1.476562 -1.078125 1.632812 -0.851562 1.84375 -0.6875 C 2.050781 -0.519531 2.3125 -0.4375 2.625 -0.4375 C 2.800781 -0.4375 2.976562 -0.460938 3.15625 -0.515625 C 3.34375 -0.566406 3.519531 -0.644531 3.6875 -0.75 C 3.71875 -0.71875 3.75 -0.675781 3.78125 -0.625 C 3.8125 -0.570312 3.832031 -0.523438 3.84375 -0.484375 C 3.632812 -0.316406 3.40625 -0.179688 3.15625 -0.078125 C 2.914062 0.015625 2.632812 0.0625 2.3125 0.0625 Z M 2.3125 0.0625 "/></g></g></g><g fill="#ffffff" fill-opacity="1"><g transform="translate(174.392566, 50.541611)"><g><path d="M 2.453125 -0.34375 C 2.671875 -0.34375 2.859375 -0.414062 3.015625 -0.5625 C 3.171875 -0.707031 3.289062 -0.90625 3.375 -1.15625 C 3.457031 -1.414062 3.5 -1.710938 3.5 -2.046875 C 3.5 -2.390625 3.445312 -2.703125 3.34375 -2.984375 C 3.238281 -3.273438 3.085938 -3.503906 2.890625 -3.671875 C 2.703125 -3.835938 2.484375 -3.921875 2.234375 -3.921875 C 2.035156 -3.921875 1.859375 -3.851562 1.703125 -3.71875 C 1.546875 -3.59375 1.421875 -3.410156 1.328125 -3.171875 C 1.242188 -2.929688 1.203125 -2.644531 1.203125 -2.3125 C 1.203125 -2.050781 1.226562 -1.800781 1.28125 -1.5625 C 1.332031 -1.320312 1.410156 -1.109375 1.515625 -0.921875 C 1.617188 -0.742188 1.75 -0.601562 1.90625 -0.5 C 2.0625 -0.394531 2.242188 -0.34375 2.453125 -0.34375 Z M 2.34375 0.0625 C 1.90625 0.0625 1.53125 -0.03125 1.21875 -0.21875 C 0.90625 -0.414062 0.660156 -0.675781 0.484375 -1 C 0.304688 -1.332031 0.21875 -1.710938 0.21875 -2.140625 C 0.21875 -2.472656 0.269531 -2.769531 0.375 -3.03125 C 0.488281 -3.300781 0.640625 -3.53125 0.828125 -3.71875 C 1.015625 -3.914062 1.238281 -4.0625 1.5 -4.15625 C 1.757812 -4.257812 2.039062 -4.3125 2.34375 -4.3125 C 2.769531 -4.3125 3.140625 -4.222656 3.453125 -4.046875 C 3.773438 -3.867188 4.023438 -3.617188 4.203125 -3.296875 C 4.390625 -2.984375 4.484375 -2.613281 4.484375 -2.1875 C 4.484375 -1.863281 4.429688 -1.5625 4.328125 -1.28125 C 4.234375 -1.007812 4.085938 -0.773438 3.890625 -0.578125 C 3.703125 -0.378906 3.476562 -0.222656 3.21875 -0.109375 C 2.957031 0.00390625 2.664062 0.0625 2.34375 0.0625 Z M 2.34375 0.0625 "/></g></g></g><g fill="#ffffff" fill-opacity="1"><g transform="translate(179.09395, 50.541611)"><g><path d="M 4.28125 -3.0625 L 3.046875 0 C 3.003906 0.0195312 2.945312 0.0351562 2.875 0.046875 C 2.800781 0.0546875 2.734375 0.0625 2.671875 0.0625 L 1.28125 -3.046875 L 1.109375 -1.34375 C 1.078125 -1.082031 1.070312 -0.882812 1.09375 -0.75 C 1.113281 -0.613281 1.15625 -0.519531 1.21875 -0.46875 C 1.289062 -0.414062 1.382812 -0.378906 1.5 -0.359375 C 1.519531 -0.304688 1.53125 -0.242188 1.53125 -0.171875 C 1.53125 -0.109375 1.53125 -0.046875 1.53125 0.015625 C 1.457031 0.00390625 1.351562 0 1.21875 0 C 1.09375 0 0.972656 0 0.859375 0 C 0.785156 0 0.703125 0 0.609375 0 C 0.515625 0 0.425781 0 0.34375 0 C 0.257812 0.0078125 0.191406 0.015625 0.140625 0.015625 C 0.140625 -0.046875 0.140625 -0.109375 0.140625 -0.171875 C 0.148438 -0.242188 0.164062 -0.304688 0.1875 -0.359375 C 0.289062 -0.378906 0.375 -0.414062 0.4375 -0.46875 C 0.507812 -0.519531 0.566406 -0.613281 0.609375 -0.75 C 0.648438 -0.882812 0.679688 -1.085938 0.703125 -1.359375 L 0.875 -3.21875 C 0.894531 -3.40625 0.894531 -3.546875 0.875 -3.640625 C 0.851562 -3.734375 0.8125 -3.796875 0.75 -3.828125 C 0.6875 -3.867188 0.59375 -3.890625 0.46875 -3.890625 C 0.445312 -3.953125 0.429688 -4.015625 0.421875 -4.078125 C 0.421875 -4.140625 0.421875 -4.207031 0.421875 -4.28125 C 0.484375 -4.269531 0.554688 -4.265625 0.640625 -4.265625 C 0.722656 -4.265625 0.804688 -4.257812 0.890625 -4.25 C 0.984375 -4.25 1.054688 -4.25 1.109375 -4.25 C 1.171875 -4.25 1.242188 -4.25 1.328125 -4.25 C 1.421875 -4.257812 1.507812 -4.265625 1.59375 -4.265625 C 1.675781 -4.265625 1.742188 -4.269531 1.796875 -4.28125 L 3.140625 -1.1875 L 4.3125 -4.28125 C 4.375 -4.269531 4.445312 -4.265625 4.53125 -4.265625 C 4.625 -4.265625 4.710938 -4.257812 4.796875 -4.25 C 4.878906 -4.25 4.953125 -4.25 5.015625 -4.25 C 5.078125 -4.25 5.148438 -4.25 5.234375 -4.25 C 5.316406 -4.257812 5.398438 -4.265625 5.484375 -4.265625 C 5.566406 -4.265625 5.632812 -4.269531 5.6875 -4.28125 C 5.6875 -4.207031 5.679688 -4.132812 5.671875 -4.0625 C 5.671875 -4 5.660156 -3.941406 5.640625 -3.890625 C 5.472656 -3.890625 5.359375 -3.84375 5.296875 -3.75 C 5.234375 -3.65625 5.210938 -3.472656 5.234375 -3.203125 L 5.4375 -1.203125 C 5.457031 -0.972656 5.484375 -0.800781 5.515625 -0.6875 C 5.546875 -0.570312 5.59375 -0.492188 5.65625 -0.453125 C 5.71875 -0.410156 5.800781 -0.382812 5.90625 -0.375 C 5.925781 -0.3125 5.9375 -0.25 5.9375 -0.1875 C 5.9375 -0.125 5.9375 -0.0546875 5.9375 0.015625 C 5.894531 0.015625 5.832031 0.0078125 5.75 0 C 5.664062 0 5.570312 0 5.46875 0 C 5.375 0 5.28125 0 5.1875 0 C 5.09375 0 5.007812 0 4.9375 0 C 4.851562 0 4.753906 0 4.640625 0 C 4.523438 0 4.414062 0 4.3125 0 C 4.207031 0.0078125 4.125 0.015625 4.0625 0.015625 C 4.0625 -0.0546875 4.066406 -0.125 4.078125 -0.1875 C 4.085938 -0.25 4.097656 -0.304688 4.109375 -0.359375 C 4.242188 -0.378906 4.34375 -0.410156 4.40625 -0.453125 C 4.46875 -0.492188 4.5 -0.5625 4.5 -0.65625 C 4.507812 -0.757812 4.503906 -0.914062 4.484375 -1.125 Z M 4.28125 -3.0625 "/></g></g></g><g fill="#ffffff" fill-opacity="1"><g transform="translate(185.171949, 50.541611)"><g><path d="M 1.671875 -3.84375 L 1.671875 -1.09375 C 1.671875 -0.90625 1.691406 -0.757812 1.734375 -0.65625 C 1.773438 -0.5625 1.835938 -0.492188 1.921875 -0.453125 C 2.015625 -0.410156 2.140625 -0.378906 2.296875 -0.359375 C 2.316406 -0.304688 2.328125 -0.25 2.328125 -0.1875 C 2.335938 -0.125 2.34375 -0.0546875 2.34375 0.015625 C 2.269531 0.015625 2.175781 0.0078125 2.0625 0 C 1.957031 0 1.835938 0 1.703125 0 C 1.578125 0 1.453125 0 1.328125 0 C 1.210938 0 1.085938 0 0.953125 0 C 0.816406 0 0.6875 0 0.5625 0 C 0.445312 0.0078125 0.347656 0.015625 0.265625 0.015625 C 0.265625 -0.0664062 0.265625 -0.140625 0.265625 -0.203125 C 0.273438 -0.265625 0.285156 -0.316406 0.296875 -0.359375 C 0.410156 -0.367188 0.5 -0.390625 0.5625 -0.421875 C 0.625 -0.460938 0.664062 -0.523438 0.6875 -0.609375 C 0.71875 -0.703125 0.734375 -0.832031 0.734375 -1 L 0.734375 -3.265625 C 0.734375 -3.429688 0.722656 -3.554688 0.703125 -3.640625 C 0.679688 -3.722656 0.640625 -3.78125 0.578125 -3.8125 C 0.515625 -3.851562 0.425781 -3.878906 0.3125 -3.890625 C 0.289062 -3.929688 0.273438 -3.984375 0.265625 -4.046875 C 0.265625 -4.117188 0.265625 -4.195312 0.265625 -4.28125 C 0.453125 -4.269531 0.625 -4.257812 0.78125 -4.25 C 0.945312 -4.25 1.09375 -4.25 1.21875 -4.25 C 1.3125 -4.25 1.425781 -4.25 1.5625 -4.25 C 1.707031 -4.257812 1.84375 -4.265625 1.96875 -4.265625 C 2.09375 -4.265625 2.179688 -4.265625 2.234375 -4.265625 C 2.640625 -4.265625 2.953125 -4.207031 3.171875 -4.09375 C 3.398438 -3.976562 3.5625 -3.828125 3.65625 -3.640625 C 3.75 -3.453125 3.796875 -3.238281 3.796875 -3 C 3.796875 -2.71875 3.738281 -2.457031 3.625 -2.21875 C 3.507812 -1.988281 3.335938 -1.804688 3.109375 -1.671875 C 2.890625 -1.535156 2.617188 -1.46875 2.296875 -1.46875 C 2.117188 -1.46875 1.972656 -1.488281 1.859375 -1.53125 C 1.847656 -1.601562 1.84375 -1.664062 1.84375 -1.71875 C 1.851562 -1.78125 1.867188 -1.835938 1.890625 -1.890625 C 1.929688 -1.878906 1.96875 -1.875 2 -1.875 C 2.039062 -1.875 2.082031 -1.875 2.125 -1.875 C 2.25 -1.875 2.363281 -1.898438 2.46875 -1.953125 C 2.570312 -2.015625 2.65625 -2.113281 2.71875 -2.25 C 2.789062 -2.382812 2.828125 -2.570312 2.828125 -2.8125 C 2.828125 -3.125 2.753906 -3.378906 2.609375 -3.578125 C 2.472656 -3.773438 2.253906 -3.875 1.953125 -3.875 C 1.898438 -3.875 1.847656 -3.875 1.796875 -3.875 C 1.765625 -3.863281 1.722656 -3.851562 1.671875 -3.84375 Z M 1.671875 -3.84375 "/></g></g></g><g fill="#ffffff" fill-opacity="1"><g transform="translate(189.194244, 50.541611)"><g><path d="M 2.546875 -1.5625 L 2.1875 -2.375 C 2.101562 -2.5625 2.035156 -2.738281 1.984375 -2.90625 C 1.953125 -2.988281 1.921875 -3.078125 1.890625 -3.171875 C 1.867188 -3.078125 1.84375 -2.984375 1.8125 -2.890625 C 1.75 -2.722656 1.6875 -2.550781 1.625 -2.375 L 1.296875 -1.5625 Z M 1.15625 -1.15625 L 1.0625 -0.9375 C 1 -0.769531 0.984375 -0.632812 1.015625 -0.53125 C 1.046875 -0.4375 1.140625 -0.378906 1.296875 -0.359375 C 1.316406 -0.304688 1.328125 -0.25 1.328125 -0.1875 C 1.335938 -0.125 1.34375 -0.0546875 1.34375 0.015625 C 1.289062 0.015625 1.226562 0.0078125 1.15625 0 C 1.082031 0 1 0 0.90625 0 C 0.820312 0 0.742188 0 0.671875 0 C 0.566406 0 0.460938 0 0.359375 0 C 0.253906 0 0.171875 0.00390625 0.109375 0.015625 C 0.109375 -0.0546875 0.109375 -0.125 0.109375 -0.1875 C 0.117188 -0.25 0.132812 -0.304688 0.15625 -0.359375 C 0.226562 -0.378906 0.289062 -0.40625 0.34375 -0.4375 C 0.394531 -0.476562 0.441406 -0.546875 0.484375 -0.640625 C 0.535156 -0.734375 0.597656 -0.859375 0.671875 -1.015625 L 1.984375 -4.265625 C 2.046875 -4.285156 2.101562 -4.296875 2.15625 -4.296875 C 2.207031 -4.296875 2.273438 -4.296875 2.359375 -4.296875 L 3.796875 -1.046875 C 3.878906 -0.859375 3.945312 -0.71875 4 -0.625 C 4.0625 -0.53125 4.113281 -0.46875 4.15625 -0.4375 C 4.207031 -0.40625 4.265625 -0.378906 4.328125 -0.359375 C 4.335938 -0.304688 4.347656 -0.25 4.359375 -0.1875 C 4.367188 -0.125 4.375 -0.0546875 4.375 0.015625 C 4.300781 0.00390625 4.207031 0 4.09375 0 C 3.988281 0 3.878906 0 3.765625 0 C 3.660156 0 3.578125 0 3.515625 0 C 3.460938 0 3.390625 0 3.296875 0 C 3.210938 0 3.125 0 3.03125 0 C 2.945312 0 2.863281 0 2.78125 0 C 2.695312 0.0078125 2.632812 0.015625 2.59375 0.015625 C 2.59375 -0.0664062 2.59375 -0.132812 2.59375 -0.1875 C 2.601562 -0.25 2.617188 -0.304688 2.640625 -0.359375 C 2.796875 -0.390625 2.882812 -0.4375 2.90625 -0.5 C 2.9375 -0.5625 2.914062 -0.675781 2.84375 -0.84375 L 2.6875 -1.203125 C 2.4375 -1.203125 2.175781 -1.203125 1.90625 -1.203125 C 1.644531 -1.191406 1.394531 -1.175781 1.15625 -1.15625 Z M 1.15625 -1.15625 "/></g></g></g><g fill="#ffffff" fill-opacity="1"><g transform="translate(193.668241, 50.541611)"><g><path d="M 3.53125 -1.484375 L 3.53125 -2.984375 C 3.53125 -3.222656 3.515625 -3.40625 3.484375 -3.53125 C 3.460938 -3.65625 3.414062 -3.742188 3.34375 -3.796875 C 3.269531 -3.847656 3.171875 -3.878906 3.046875 -3.890625 C 3.023438 -3.960938 3.007812 -4.03125 3 -4.09375 C 3 -4.15625 3 -4.21875 3 -4.28125 C 3.0625 -4.269531 3.132812 -4.265625 3.21875 -4.265625 C 3.300781 -4.265625 3.382812 -4.257812 3.46875 -4.25 C 3.5625 -4.25 3.644531 -4.25 3.71875 -4.25 C 3.8125 -4.25 3.921875 -4.25 4.046875 -4.25 C 4.171875 -4.257812 4.269531 -4.269531 4.34375 -4.28125 C 4.34375 -4.21875 4.34375 -4.148438 4.34375 -4.078125 C 4.34375 -4.015625 4.332031 -3.953125 4.3125 -3.890625 C 4.207031 -3.878906 4.128906 -3.847656 4.078125 -3.796875 C 4.023438 -3.742188 3.984375 -3.65625 3.953125 -3.53125 C 3.929688 -3.40625 3.921875 -3.222656 3.921875 -2.984375 L 3.921875 0 C 3.867188 0.0195312 3.804688 0.03125 3.734375 0.03125 C 3.660156 0.0390625 3.582031 0.046875 3.5 0.046875 L 1.140625 -3.09375 L 1.140625 -1.28125 C 1.140625 -1.039062 1.148438 -0.851562 1.171875 -0.71875 C 1.203125 -0.59375 1.25 -0.503906 1.3125 -0.453125 C 1.382812 -0.398438 1.484375 -0.367188 1.609375 -0.359375 C 1.617188 -0.304688 1.625 -0.25 1.625 -0.1875 C 1.632812 -0.125 1.640625 -0.0546875 1.640625 0.015625 C 1.578125 0.015625 1.503906 0.0078125 1.421875 0 C 1.335938 0 1.253906 0 1.171875 0 C 1.085938 0 1.015625 0 0.953125 0 C 0.878906 0 0.796875 0 0.703125 0 C 0.609375 0 0.515625 0 0.421875 0 C 0.335938 0.0078125 0.269531 0.015625 0.21875 0.015625 C 0.21875 -0.0546875 0.21875 -0.125 0.21875 -0.1875 C 0.226562 -0.25 0.242188 -0.304688 0.265625 -0.359375 C 0.378906 -0.367188 0.472656 -0.398438 0.546875 -0.453125 C 0.617188 -0.503906 0.664062 -0.59375 0.6875 -0.71875 C 0.71875 -0.851562 0.734375 -1.039062 0.734375 -1.28125 L 0.734375 -3.625 L 0.671875 -3.703125 C 0.628906 -3.765625 0.578125 -3.804688 0.515625 -3.828125 C 0.460938 -3.859375 0.378906 -3.878906 0.265625 -3.890625 C 0.242188 -3.953125 0.226562 -4.015625 0.21875 -4.078125 C 0.21875 -4.148438 0.21875 -4.21875 0.21875 -4.28125 C 0.269531 -4.269531 0.332031 -4.265625 0.40625 -4.265625 C 0.488281 -4.265625 0.570312 -4.257812 0.65625 -4.25 C 0.738281 -4.25 0.8125 -4.25 0.875 -4.25 C 0.96875 -4.25 1.066406 -4.25 1.171875 -4.25 C 1.285156 -4.257812 1.378906 -4.269531 1.453125 -4.28125 Z M 3.53125 -1.484375 "/></g></g></g><g fill="#ffffff" fill-opacity="1"><g transform="translate(198.237495, 50.541611)"><g><path d="M 1.546875 -1.59375 L 0.59375 -3.515625 C 0.519531 -3.648438 0.445312 -3.742188 0.375 -3.796875 C 0.3125 -3.859375 0.238281 -3.890625 0.15625 -3.890625 C 0.132812 -3.953125 0.117188 -4.007812 0.109375 -4.0625 C 0.109375 -4.125 0.109375 -4.191406 0.109375 -4.265625 C 0.191406 -4.265625 0.285156 -4.257812 0.390625 -4.25 C 0.492188 -4.25 0.597656 -4.25 0.703125 -4.25 C 0.804688 -4.25 0.898438 -4.25 0.984375 -4.25 C 1.054688 -4.25 1.148438 -4.25 1.265625 -4.25 C 1.390625 -4.25 1.507812 -4.25 1.625 -4.25 C 1.75 -4.257812 1.847656 -4.265625 1.921875 -4.265625 C 1.921875 -4.191406 1.914062 -4.125 1.90625 -4.0625 C 1.90625 -4.007812 1.898438 -3.957031 1.890625 -3.90625 C 1.742188 -3.882812 1.660156 -3.832031 1.640625 -3.75 C 1.628906 -3.664062 1.664062 -3.539062 1.75 -3.375 C 1.832031 -3.207031 1.925781 -3 2.03125 -2.75 C 2.132812 -2.519531 2.234375 -2.285156 2.328125 -2.046875 C 2.429688 -2.296875 2.53125 -2.53125 2.625 -2.75 C 2.726562 -2.976562 2.820312 -3.179688 2.90625 -3.359375 C 2.988281 -3.535156 3.015625 -3.660156 2.984375 -3.734375 C 2.953125 -3.816406 2.867188 -3.867188 2.734375 -3.890625 C 2.710938 -3.953125 2.695312 -4.007812 2.6875 -4.0625 C 2.675781 -4.125 2.671875 -4.191406 2.671875 -4.265625 C 2.765625 -4.265625 2.863281 -4.257812 2.96875 -4.25 C 3.082031 -4.25 3.195312 -4.25 3.3125 -4.25 C 3.40625 -4.25 3.5 -4.25 3.59375 -4.25 C 3.6875 -4.257812 3.78125 -4.265625 3.875 -4.265625 C 3.875 -4.191406 3.867188 -4.125 3.859375 -4.0625 C 3.847656 -4.007812 3.835938 -3.957031 3.828125 -3.90625 C 3.734375 -3.875 3.644531 -3.816406 3.5625 -3.734375 C 3.476562 -3.648438 3.390625 -3.503906 3.296875 -3.296875 L 2.484375 -1.578125 L 2.484375 -1.140625 C 2.484375 -0.921875 2.492188 -0.757812 2.515625 -0.65625 C 2.546875 -0.550781 2.601562 -0.476562 2.6875 -0.4375 C 2.769531 -0.40625 2.890625 -0.378906 3.046875 -0.359375 C 3.066406 -0.296875 3.078125 -0.234375 3.078125 -0.171875 C 3.085938 -0.117188 3.09375 -0.0546875 3.09375 0.015625 C 2.9375 0.00390625 2.757812 0 2.5625 0 C 2.375 0 2.1875 0 2 0 C 1.882812 0 1.757812 0 1.625 0 C 1.488281 0 1.359375 0 1.234375 0 C 1.109375 0.0078125 1 0.015625 0.90625 0.015625 C 0.90625 -0.0546875 0.90625 -0.125 0.90625 -0.1875 C 0.914062 -0.25 0.929688 -0.304688 0.953125 -0.359375 C 1.140625 -0.378906 1.269531 -0.40625 1.34375 -0.4375 C 1.425781 -0.46875 1.476562 -0.53125 1.5 -0.625 C 1.53125 -0.726562 1.546875 -0.890625 1.546875 -1.109375 Z M 1.546875 -1.59375 "/></g></g></g></svg>